<?xml version="1.0" encoding="UTF-8"?><svg id="Layer_1" xmlns="http://www.w3.org/2000/svg" width="6166.66" height="1460.59" viewBox="0 0 6166.66 1460.59"><path d="m6162.33,1460.59h-952.45c-78.08,0-142.82-19.57-203.74-61.58-54.84-37.83-101.99-90.83-151.91-146.94-30.38-34.15-61.8-69.47-97.83-105.01-59.64-58.84-108.71-94.38-151.99-125.74-72.13-52.25-129.11-93.52-196.4-211.39-28.03-49.1-57.42-74.48-89.83-77.6-60.62-5.83-129.67,67.38-208.58,158.39,63.74,95.03,163.13,188.59,245.75,266.36,49.2,46.32,95.68,90.07,126.41,126.33,34.95,41.23,47.01,70.06,37.97,90.7-6.89,15.73-25.61,26.02-57.25,31.47-32.2,5.54-77.6,6.14-138.79,1.83-74.29-5.23-143.91-29.15-206.92-71.09-54.33-36.16-105.6-87.03-152.4-151.2-18.91-25.92-36.43-53.01-52.76-80.71-48.43,43.92-100.62,82.83-157.67,110.87-195.76,96.22-329,155.14-472.23,190.91-146.16,36.5-302.7,49.19-540.34,43.82-18.77-.42-29.23-5-32-14-4.87-15.85,16.77-41.75,72.35-86.58,47.71-38.47,116.65-87.58,189.65-139.57,101.9-72.58,217.39-154.83,313.61-234.9,110.69-92.11,175.43-164.39,197.93-220.98,61.86-155.62,79.74-195.58,99.77-199.84,10.95-2.32,19.97,6.48,32.47,18.67,13.57,13.24,32.15,31.37,61.91,43.5,33.85,13.8,64.06,88.48,105.87,191.83,34.72,85.83,75.86,187.53,130.73,282.59,60.19-55.71,114.62-118.94,165.37-177.88,6.61-7.68,13.18-15.3,19.68-22.82-12.1-18.48-22.41-36.35-31.01-53.73-49.94-100.95-125.78-187.86-180.61-243-65.67-66.04-138.96-124.7-201.08-160.93-54.01-31.5-93.42-125.2-122.19-193.62-10.04-23.88-18.72-44.5-26.49-59.17-10.4-19.64-15.21-20.6-16.45-20.43-2.39.33-10.77,6.28-18.3,68.69-6.06,50.22-17.45,95.83-34.82,139.43-16,40.17-37.19,78.79-64.77,118.06-52.24,74.37-122.85,144.33-204.62,225.34-6.04,5.98-12.14,12.03-18.31,18.15-17.7,17.56-44.3,46.57-75.11,80.17-38.1,41.55-81.28,88.64-116.88,123.97-52.68,52.29-68.83,59.41-76.86,54-5.92-3.98-8.48-13.83,12.68-58.6,46.97-99.37,149.77-203.83,249.18-304.86,76.9-78.15,156.42-158.96,208-235.64,47.86-71.14,67.97-151.62,76.42-206.6,10.56-68.77,7.71-126,2.05-154.11-2.32-11.53-4.63-16.08-5.79-17.77-.32.51-.72,1.26-1.19,2.37-14.08,33.79-31.6,75.83-61.71,113.65-32.48,40.78-76.77,73.33-135.41,99.5-43.81,19.55-97.46,114.48-140.56,190.76-42.96,76.02-68.49,119.54-87.39,119.54-.34,0-.67-.01-1.01-.04-24.62-2.05-29.73-23.77-33.45-39.63-3.36-14.29-5.21-18.63-10.31-17.9-6.2.89-9.33,4.81-24.89,25.49-27.68,36.79-92.5,122.96-282.47,324.62-84.55,89.75-231.02,161.92-396.02,233.11,2.55,3,5.11,6.01,7.67,9.03,53.89,63.5,109.61,129.16,162.89,184.16,60.57,62.53,106.25,98.78,139.65,110.84,10.06,3.64,14.38,6.83,14.88,11.04.18,1.48-.04,4.31-3.46,6.56-14.58,9.62-97.47,6.73-169.19-1.62-59.14-6.89-167.57-23.74-229.25-59.28-87.04-50.15-200.68-56.64-337.77-19.31-111.11,30.26-207.11,80.98-253.24,105.36-8.48,4.48-15.19,8.02-19.9,10.33-5.87,2.87-10.5,5.13-13.12,1.32-2.82-4.11,1.17-7.6,9.93-15.25,138.32-120.9,353.03-210.71,560.67-297.55,39.27-16.42,78.12-32.68,116.06-48.96-46.86-55.15-90.5-105.86-123.09-136.97-46.64-44.52-71.6-65.2-98.87-62.37-27.98,2.89-61.57,30.64-122.57,81-58.62,48.41-147.22,121.56-284.29,216.1-3.86,2.66-7.71,5.31-11.53,7.92-138.4,94.86-289.96,168.12-450.47,217.74-160.32,49.57-326.79,74.71-494.77,74.71H4.33c-2.39,0-4.33-1.94-4.33-4.33s1.94-4.33,4.33-4.33h675.26c167.12,0,332.72-25,492.21-74.32,159.67-49.37,310.44-122.25,448.13-216.61,3.81-2.62,7.65-5.25,11.51-7.91,136.77-94.32,225.19-167.33,283.69-215.64,64.32-53.11,96.61-79.77,127.19-82.94,30.85-3.19,57.13,18.32,105.75,64.72,33.3,31.79,77.77,83.55,125.44,139.66,165.11-71.16,311.7-143.11,395.58-232.15,189.64-201.32,254.26-287.21,281.86-323.89,16.27-21.63,20.64-27.44,30.59-28.86,13.75-1.96,17.05,12.09,19.97,24.5,3.63,15.46,7.38,31.45,25.73,32.98,3.35.28,11.85-3.53,31.03-32.18,14.3-21.36,31.21-51.28,49.11-82.95,46.01-81.42,98.15-173.7,144.57-194.41,57.34-25.59,100.57-57.31,132.16-96.98,27.2-34.16,42.85-69.25,60.49-111.59.83-2,3.38-8.1,8.7-8.44,3.28-.21,6.15,1.79,8.53,5.92,9.97,17.38,15.64,77.92,7.87,149.17-6.92,63.48-26.66,156.24-81.4,237.62-52.03,77.35-131.84,158.45-209.02,236.88-98.91,100.51-201.18,204.45-247.53,302.49-18.72,39.6-16.25,46.74-15.66,47.7.68.14,5.39.45,22.05-12.76,11.62-9.21,26.53-22.92,45.59-41.92,35.12-34.99,77.48-81.19,114.86-121.96,30.88-33.68,57.55-62.76,75.39-80.47,6.17-6.12,12.28-12.17,18.31-18.15,81.47-80.72,151.83-150.42,203.63-224.16,27.2-38.72,48.07-76.75,63.82-116.29,17.08-42.9,28.29-87.8,34.26-137.27,7.84-64.93,16.98-75.01,25.7-76.23,14.88-2.09,27.42,26.07,52.12,84.81,28.3,67.29,67.06,159.45,118.57,189.5,62.74,36.6,136.67,95.75,202.86,162.31,55.28,55.59,131.77,143.27,182.23,245.26,8.36,16.89,18.18,33.83,29.17,50.73,35.67-41.11,69.6-78.82,101.34-106.87,44.22-39.08,80.13-55.82,113.03-52.63,35.42,3.41,67,30.21,96.53,81.93,66.37,116.25,122.67,157.03,193.96,208.67,43.54,31.54,92.88,67.28,153,126.58,36.22,35.74,67.74,71.16,98.21,105.42,49.56,55.71,96.37,108.33,150.35,145.56,59.4,40.97,122.58,60.05,198.82,60.05h952.45c2.39,0,4.33,1.94,4.33,4.33s-1.94,4.33-4.33,4.33Zm-2576.3-898.12c-.53,0-1.04.05-1.55.16-16.08,3.42-39.63,58.98-93.53,194.57-51.71,130.07-308.35,312.86-514.56,459.73-72.89,51.91-141.73,100.95-189.24,139.26-61.77,49.82-71.9,69.53-69.51,77.29,1.47,4.77,9.96,7.57,23.91,7.88,236.81,5.35,392.69-7.27,538.04-43.56,142.48-35.58,275.28-94.33,470.5-190.28,56.73-27.88,108.72-66.79,157.02-110.75-55.64-96.04-97.19-198.73-132.22-285.34-39.47-97.57-70.65-174.64-101.11-187.06-31.33-12.77-50.61-31.59-64.69-45.32-9.73-9.5-16.98-16.56-23.07-16.56Zm332.1,535.97c16.46,28.02,34.13,55.41,53.22,81.58,46.19,63.34,96.73,113.5,150.21,149.09,61.75,41.1,129.96,64.54,202.73,69.66,114.35,8.05,175.68-1.15,187.5-28.13,16.87-38.51-66.2-116.71-162.38-207.25-50.2-47.26-107.1-100.82-157.53-156-35.86-39.23-65.07-75.6-88.18-109.84-5.98,6.91-12.01,13.92-18.09,20.99-51.32,59.61-106.4,123.58-167.47,179.9Zm-1647.08-33.95c-38.75,16.65-78.45,33.26-118.58,50.04-201.67,84.35-410.02,171.49-547.55,286.87.85-.45,1.71-.9,2.58-1.36,46.41-24.52,142.98-75.54,255.01-106.05,139.4-37.96,255.26-31.18,344.37,20.16,44.54,25.66,127.88,46.98,228.65,58.49,39.35,4.5,78.26,7.07,109.58,7.26,32.25.19,44.45-2.16,48.88-3.61-1.4-.79-3.68-1.87-7.36-3.2-77.42-27.96-198.96-171.18-306.2-297.55-3.14-3.7-6.27-7.39-9.38-11.06Z" fill="#1c1b1a"/></svg>