<?xml version="1.0" encoding="UTF-8"?><svg id="Calque_1" xmlns="http://www.w3.org/2000/svg" width="400" height="460" viewBox="0 0 400 460"><g><path d="m172.05,42.44h24.09v7.02h-31.11V0h7.02v42.44Z" fill="#7f7f7f"/><path d="m207.47,49.62v-16.27L219.44,0h7.02l11.97,33.19v16.27h-7.02v-11.49h-16.91v11.49h-7.02v.16Zm22.82-18.67l-7.18-19.78h-.16l-7.18,19.78h14.52Z" fill="#7f7f7f"/></g><g><rect x=".05" y="86.48" width="31.27" height="141.52" fill="#7f7f7f"/><path d="m73.6,192.42v-70.2c0-18.19-13.72-33.19-31.27-35.42v141.05c17.55-2.23,31.27-17.23,31.27-35.42Z" fill="#7f7f7f"/><rect x=".05" y="239.01" width="31.27" height="152.69" fill="#7f7f7f"/><path d="m73.6,356.12v-81.53c0-18.19-13.72-33.19-31.27-35.26v152.21c17.55-2.23,31.27-17.23,31.27-35.42Z" fill="#7f7f7f"/><path d="m108.71,274.59v81.53c0,18.19,13.72,33.19,31.27,35.26v-152.21c-17.55,2.23-31.27,17.23-31.27,35.42Z" fill="#7f7f7f"/><path d="m182.26,228v-105.78c0-18.19-13.72-33.19-31.27-35.26v141.2h31.27v-.16Z" fill="#7f7f7f"/><rect x="150.99" y="239.01" width="31.27" height="152.69" fill="#7f7f7f"/><path d="m217.52,122.22v30.32c0,18.19,13.72,33.19,31.27,35.42v-101.16c-17.71,2.07-31.27,17.23-31.27,35.42Z" fill="#7f7f7f"/><path d="m290.92,122.22c0-18.19-13.72-33.19-31.27-35.26v76.9h31.27v-41.64Z" fill="#7f7f7f"/><path d="m108.71,122.22v41.64h31.27v-77.06c-17.55,2.07-31.27,17.23-31.27,35.42Z" fill="#7f7f7f"/><path d="m399.57,192.42v-70.04c0-18.19-13.72-33.19-31.27-35.26v140.73c17.71-2.23,31.27-17.23,31.27-35.42Z" fill="#7f7f7f"/><path d="m326.18,238.85v117.43c0,18.19,13.72,33.19,31.27,35.26v-152.85h-31.27v.16Z" fill="#7f7f7f"/><path d="m399.57,356.44v-41.8h-31.27v77.06c17.71-2.07,31.27-17.23,31.27-35.26Z" fill="#7f7f7f"/><path d="m217.52,356.12c0,18.19,13.72,33.19,31.27,35.42v-152.53h-31.27v117.11Z" fill="#7f7f7f"/><path d="m290.92,356.12v-121.42c0-18.19-13.72-33.19-31.27-35.26v192.1c17.55-2.23,31.27-17.23,31.27-35.42Z" fill="#7f7f7f"/></g><g><path d="m10.1,431.43h-3.19c-1.76,0-3.03,1.44-3.03,3.03v12.92c0,1.76,1.44,3.03,3.03,3.03h3.03c1.76,0,3.03-1.44,3.03-3.03v-2.07h3.83v2.07c0,3.83-3.03,7.02-6.86,7.02h-3.03c-3.83,0-6.86-3.19-6.86-7.02v-12.92c0-3.83,3.03-6.86,6.86-6.86h3.03c3.83,0,6.86,3.03,6.86,6.86v2.07h-3.67v-2.07c0-1.76-1.44-3.03-3.03-3.03Z" fill="#7f7f7f"/><path d="m27.17,450.58h13.08v3.83h-16.91v-26.8h3.83v22.98Z" fill="#7f7f7f"/><path d="m63.39,427.6v3.83h-6.54v19.15h6.54v3.83h-16.91v-3.83h6.54v-19.15h-6.54v-3.83h16.91Z" fill="#7f7f7f"/><path d="m87.33,427.6v26.8h-5.58l-7.5-20.42v20.42h-3.83v-26.8h5.58l7.5,20.42v-20.42h3.83Z" fill="#7f7f7f"/><path d="m111.26,427.6v3.83h-6.54v19.15h6.54v3.83h-16.91v-3.83h6.54v-19.15h-6.54v-3.83h16.91Z" fill="#7f7f7f"/><path d="m131.84,459.51l-3.03-4.95h-3.51c-3.83,0-6.86-3.19-6.86-7.02v-12.92c0-3.83,3.03-6.86,6.86-6.86h3.03c3.83,0,6.86,3.03,6.86,6.86v12.92c0,2.23-1.12,4.31-2.71,5.58l2.71,4.47-3.35,1.91Zm-6.7-8.93h3.03c1.76,0,3.03-1.44,3.03-3.03v-12.92c0-1.76-1.28-3.03-3.03-3.03h-3.03c-1.76,0-3.03,1.44-3.03,3.03v12.92c0,1.6,1.44,3.03,3.03,3.03Z" fill="#7f7f7f"/><path d="m151.79,454.41h-3.03c-3.83,0-6.86-3.19-6.86-7.02v-19.78h3.83v19.94c0,1.76,1.44,3.03,3.03,3.03h3.03c1.76,0,3.03-1.44,3.03-3.03v-19.94h3.83v19.94c.16,3.67-3.03,6.86-6.86,6.86Z" fill="#7f7f7f"/><path d="m182.26,431.43h-13.08v7.02h11.49v3.83h-11.49v8.3h13.08v3.83h-16.91v-26.8h16.91v3.83Z" fill="#7f7f7f"/><path d="m220.71,445.79v1.6c0,1.76,1.44,3.35,3.35,3.35h2.55c1.91,0,3.35-1.28,3.35-2.87,0-5.27-12.6-6.38-12.6-13.72,0-3.83,3.03-6.38,7.18-6.38h1.76c3.99,0,7.18,3.19,7.18,7.18v1.12h-3.99v-1.12c0-1.91-1.44-3.35-3.35-3.35h-1.76c-2.07,0-3.35.96-3.35,2.55,0,3.99,12.6,5.58,12.6,13.72,0,3.83-3.03,6.7-7.18,6.7h-2.55c-3.99,0-7.18-3.19-7.18-7.18v-1.6h3.99Z" fill="#7f7f7f"/><path d="m250.55,443.72h-6.06v10.69h-3.83v-26.8h10.05c3.83,0,6.86,3.03,6.86,6.86v2.23c0,3.99-3.19,7.02-7.02,7.02Zm0-3.83c1.76,0,3.03-1.28,3.03-3.03v-2.23c0-1.76-1.28-3.03-3.03-3.03h-6.06v8.46h6.06v-.16Z" fill="#7f7f7f"/><path d="m264.43,434.46c0-3.83,3.03-6.86,6.86-6.86h3.03c3.83,0,6.86,3.03,6.86,6.86v12.92c0,3.83-3.03,7.02-6.86,7.02h-3.03c-3.83,0-6.86-3.19-6.86-7.02v-12.92Zm13.08,13.08v-12.92c0-1.76-1.28-3.03-3.03-3.03h-3.03c-1.76,0-3.03,1.44-3.03,3.03v12.92c0,1.76,1.44,3.03,3.03,3.03h3.03c1.6,0,3.03-1.44,3.03-3.03Z" fill="#7f7f7f"/><path d="m300.81,454.41l-4.95-10.69h-3.99v10.69h-3.83v-26.8h10.05c3.83,0,6.86,3.03,6.86,6.86v2.23c0,3.19-2.07,5.9-4.95,6.7l4.95,11.01h-4.15Zm-2.71-14.52c1.76,0,3.03-1.28,3.03-3.03v-2.23c0-1.76-1.28-3.03-3.03-3.03h-6.06v8.46h6.06v-.16Z" fill="#7f7f7f"/><path d="m328.73,427.6v3.83h-6.54v22.98h-3.83v-22.98h-6.54v-3.83h16.91Z" fill="#7f7f7f"/><path d="m352.5,427.6v3.83h-6.54v19.15h6.54v3.83h-16.91v-3.83h6.54v-19.15h-6.54v-3.83h16.91Z" fill="#7f7f7f"/><path d="m376.28,427.6v8.78l-6.54,18.03h-3.83l-6.54-18.03v-8.78h3.83v8.14l4.63,12.6h0l4.63-12.6v-8.14h3.83Z" fill="#7f7f7f"/><path d="m400.05,431.43h-13.08v7.02h11.49v3.83h-11.49v8.3h13.08v3.83h-16.91v-26.8h16.91v3.83Z" fill="#7f7f7f"/></g><rect x=".05" y="41.48" width="139.93" height="7.5" fill="#7f7f7f"/><rect x="259.64" y="41.48" width="139.93" height="7.5" fill="#7f7f7f"/><path d="m326.18,122.22c0-18.19,13.72-33.19,31.27-35.42v141.2h-31.27v-105.78Z" fill="#7f7f7f"/></svg>