<?xml version="1.0" encoding="UTF-8"?><svg id="Calque_1" xmlns="http://www.w3.org/2000/svg" width="400" height="392" viewBox="0 0 400 392"><path d="m172.2,42.47h24.12v7.03h-31.15V0h7.03v42.47Zm35.46,7.19v-16.29L219.65,0h7.03l11.98,33.21v16.29h-7.03v-11.5h-16.93v11.5h-7.03v.16Zm22.84-18.68l-7.19-19.8h-.16l-7.19,19.8h14.54ZM0,86.54h31.31v141.63H0V86.54Zm73.64,106.02v-70.26c0-18.2-13.74-33.21-31.31-35.45v141.15c17.57-2.24,31.31-17.24,31.31-35.45ZM0,239.19h31.31v152.81H0v-152.81Zm73.64,117.2v-81.59c0-18.2-13.74-33.21-31.31-35.29v152.33c17.57-2.24,31.31-17.24,31.31-35.45Zm35.14-81.59v81.59c0,18.2,13.74,33.21,31.31,35.29v-152.33c-17.57,2.24-31.31,17.24-31.31,35.45Zm73.64-46.62v-105.86c0-18.2-13.74-33.21-31.31-35.29v141.31h31.31v-.16Zm-31.31,11.02h31.31v152.81h-31.31v-152.81Zm66.61-116.88v30.34c0,18.2,13.74,33.21,31.31,35.45v-101.23c-17.73,2.08-31.31,17.24-31.31,35.45Zm73.48,0c0-18.2-13.74-33.21-31.31-35.29v76.96h31.31v-41.67Zm-182.43,0v41.67h31.31v-77.12c-17.57,2.08-31.31,17.24-31.31,35.45Zm291.21,70.26v-70.1c0-18.2-13.74-33.21-31.31-35.29v140.83c17.73-2.24,31.31-17.24,31.31-35.45Zm-73.48,46.47v117.52c0,18.2,13.74,33.21,31.31,35.29v-152.97h-31.31v.16Zm73.48,117.68v-41.83h-31.31v77.12c17.73-2.08,31.31-17.24,31.31-35.29Zm-182.27-.32c0,18.2,13.74,33.21,31.31,35.45v-152.65h-31.31v117.2Zm73.48,0v-121.51c0-18.2-13.74-33.21-31.31-35.29v192.25c17.57-2.24,31.31-17.24,31.31-35.45ZM0,41.52h140.1v7.5H0v-7.5Zm259.9,0h140.1v7.5h-140.1v-7.5Zm66.61,80.8c0-18.2,13.74-33.21,31.31-35.45v141.31h-31.31v-105.86Z" fill="#1c1b1a"/></svg>