<svg id="icon" xmlns="http://www.w3.org/2000/svg" width="40" height="40" viewBox="0 0 40 40"><path id="linkedin" d="M14.26,13h0A1.78,1.78,0,1,0,16,14.78,1.78,1.78,0,0,0,14.26,13Zm-1.53,4.91H15.8v9.87H12.73Zm10.87-.24a3.23,3.23,0,0,0-2.9,1.59h0V17.91H17.72v9.87h3.06V22.9c0-1.29.25-2.54,1.84-2.54s1.6,1.48,1.6,2.62v4.8h3.06V22.37c0-2.66-.57-4.7-3.68-4.7ZM28.81,8.5H11.18A3.16,3.16,0,0,0,8,11.65v17.7a3.18,3.18,0,0,0,3.18,3.15H28.81A3.17,3.17,0,0,0,32,29.35V11.65A3.17,3.17,0,0,0,28.81,8.5Zm1.54,20.85a1.53,1.53,0,0,1-1.54,1.5H11.18a1.52,1.52,0,0,1-1.53-1.5V11.65a1.52,1.52,0,0,1,1.53-1.5H28.81a1.52,1.52,0,0,1,1.54,1.5Z" fill="#888"/></svg>