<svg id="Layer_1" data-name="Layer 1" xmlns="http://www.w3.org/2000/svg" width="40" height="40" viewBox="0 0 40 40"><path d="M31.92,15.05a9.66,9.66,0,0,0-.54-2.91,6.22,6.22,0,0,0-3.52-3.52A8.2,8.2,0,0,0,25,8.08C23.68,8,23.25,8,20,8s-3.68,0-4.95.08a9.66,9.66,0,0,0-2.91.54,6.22,6.22,0,0,0-3.52,3.52,8.07,8.07,0,0,0-.54,2.91C8,16.32,8,16.75,8,20s0,3.68.08,4.95a9.66,9.66,0,0,0,.54,2.91,6.22,6.22,0,0,0,3.52,3.52,8.07,8.07,0,0,0,2.91.54c1.27.08,1.7.08,4.95.08s3.68,0,4.95-.08a9.66,9.66,0,0,0,2.91-.54,6.22,6.22,0,0,0,3.52-3.52A8.2,8.2,0,0,0,31.92,25c.08-1.32.08-1.75.08-5S32,16.32,31.92,15.05Zm-2.13,9.83a5.72,5.72,0,0,1-.42,2.24,4.12,4.12,0,0,1-.89,1.4,3.57,3.57,0,0,1-1.4.89,7.78,7.78,0,0,1-2.24.42c-1.28,0-1.63.08-4.84.08s-3.6,0-4.84-.08a5.72,5.72,0,0,1-2.24-.42,4.12,4.12,0,0,1-1.4-.89,3.57,3.57,0,0,1-.89-1.4,7.16,7.16,0,0,1-.42-2.24V20c0-3.21,0-3.6.08-4.84a5.72,5.72,0,0,1,.42-2.24,4.12,4.12,0,0,1,.89-1.4,3.46,3.46,0,0,1,1.4-.89,7.47,7.47,0,0,1,2.25-.42h4.8c3.21,0,3.6,0,4.84.08a5.72,5.72,0,0,1,2.24.42,4.12,4.12,0,0,1,1.4.89,3.35,3.35,0,0,1,.84,1.4,7.47,7.47,0,0,1,.42,2.25c0,1.28.08,1.63.08,4.84S29.87,23.64,29.79,24.88ZM20,13.85A6.15,6.15,0,1,0,26.15,20h0a6.12,6.12,0,0,0-6.09-6.15ZM20,24a4,4,0,1,1,4-4A4,4,0,0,1,20,24Zm6.39-11.81a1.44,1.44,0,1,0,1.43,1.45h0a1.44,1.44,0,0,0-1.43-1.44Z" fill="#888"/></svg>