<?xml version="1.0" encoding="UTF-8"?><svg id="Layer_1" xmlns="http://www.w3.org/2000/svg" width="420" height="120" viewBox="0 0 420 120"><path d="m292.76,107.31H-.24v-8h293v8Zm95.89-73.07c-.15.16-3.75,3.9-8.08,7.17-2.01,1.51-7.04,5.31-11.96,5.31-1.75,0-3.49-.48-5.08-1.72-2.83-2.2-5.52-4.39-7.97-6.41l-13.49,16.96c.77.43,1.54.88,2.31,1.35,11.72,7.14,16.73,14.9,14.88,23.07-1.01,4.45-1.72,7.45-2.28,9.86-1.04,4.4-1.66,7.05-3,13.73-.6,3-3.24,5.07-6.19,5.07-.41,0-.83-.04-1.25-.12-3.42-.68-5.64-4-4.96-7.42,1.38-6.88,2.02-9.61,3.09-14.14.56-2.39,1.26-5.36,2.26-9.75.72-3.16-7.54-9.52-17.63-13.99-1.63,2.41-4.53,6.46-9.33,12.48-3.36,4.22-9.28,5.5-15.24,5.5-6.91,0-13.86-1.72-16.92-2.59-3.36-.95-5.31-4.44-4.35-7.79.96-3.35,4.45-5.29,7.81-4.34,7.6,2.14,16.89,2.79,18.85,1.31,7.51-9.43,9.98-13.6,10-13.64.31-.53.68-.99,1.1-1.39.12-.25.26-.49.4-.71.05-.12.1-.24.15-.36-.18-.03-.35-.06-.53-.11-2.44-.69-3.87-3.22-3.18-5.65.02-.08,2.23-7.9,5.77-19.86.58-1.97,1.98-3.55,3.93-4.43,3.29-1.49,8.53-.75,13.71.71,2.34-2.12,5.02-2.49,7.2-1.46.48.2.93.48,1.34.84.09.08,8.71,7.91,18.84,15.82,2.25-.21,8.46-4.73,13.14-9.61,1.75-1.83,4.66-1.9,6.5-.15,1.84,1.75,1.9,4.65.15,6.48Zm-59.32,5.76l6.43-9.67c-1.44-.31-2.64-.48-3.46-.45-1.15,3.9-2.15,7.32-2.97,10.13Zm28.31-18.29c5.03,0,9.1-4.06,9.1-9.07s-4.07-9.07-9.1-9.07-9.1,4.06-9.1,9.07,4.07,9.07,9.1,9.07Z" fill="#1c1b1a"/></svg>