<?xml version="1.0" encoding="UTF-8"?><svg id="Layer_1" xmlns="http://www.w3.org/2000/svg" width="5.83in" height="1.67in" viewBox="0 0 420 120"><path d="m278.76,107.31H-.24v-8h279v8Zm88.07-86.78c-4.87.9-9.54-2.31-10.44-7.18s2.31-9.54,7.18-10.44,9.54,2.31,10.44,7.18c.9,4.87-2.31,9.54-7.18,10.44Zm-73.13,68.74c.45.15,25.32,8.24,49.04,15.9.13.07.24.16.38.22.63.3,1.3.47,1.97.53,18,5.8,34.83,11.2,39.15,12.46,2.89.85,5.47.88,7.71.47,6.47-1.2,10.1-6.18,10.14-6.25l-2.63-1.87c-.21.3-5.31,7.19-14.31,4.56-4-1.17-18.75-5.89-35.21-11.2.42-.44.78-.95,1.05-1.53l10.51-22.29c.61-1.29.73-2.77.34-4.15-.16-.54-2.85-9.65-9.3-16.85.01-.04.03-.08.05-.12,1.5-4.36,3.12-8.35,4.73-11.95l6.71-1.24c.09.14.18.27.28.41,1.11,1.63,3.04.63,4.81.49,5.2-.42,10.4-.84,15.6-1.25,6.9-.56,5.11-9.82-1.72-9.28-3.99.32-7.98.64-11.97.96-2.28-3.35-4.57-6.71-6.85-10.06-.26-.38-.54-.7-.83-.97-.65-1.34-1.67-2.56-3.12-3.56-3.98-2.77-11.08-2.27-13.59,2.44-4.16,7.79-8.06,15.68-11.16,23.93l-22.53,4.16-.59-3.19-2.11.39.59,3.19-8.98,1.66c-.59.11-.97.67-.86,1.25s.67.97,1.25.86l8.98-1.66.58,3.14,2.11-.39-.58-3.14,21.29-3.94c-.13.35-.25.69-.37,1.03-.83,2.39-.74,4.56-.05,6.42.28,1.13.9,2.17,1.79,2.96,1.46,1.63,3.46,2.78,5.59,3.29,4.07,3.29,6.88,8.83,8.22,12.3l-9.49,20.13c-.5,1.07-.65,2.21-.5,3.29-22.44-7.25-44.67-14.48-45.09-14.62l-.99,3.06Z" fill="#1c1b1a"/></svg>