<?xml version="1.0" encoding="UTF-8"?><svg id="Layer_1" xmlns="http://www.w3.org/2000/svg" width="420" height="120" viewBox="0 0 420 120"><path d="m284.76,107.31H-.24v-8h285v8Zm88.88-79.14c-.6-1.03-1.58-1.71-2.66-1.96l.84-7.8c.09-.86-.53-1.63-1.39-1.72-.85-.09-1.63.53-1.72,1.39l-.94,8.69c-5.88,3.4-13.03,5.94-14.96,5.32-3.81-3.56-7.12-6.91-9.63-9.54-2.48-3.74-6.03-6.44-6.03-6.44-3.04-1.52-6.73-.14-8.4,4.43l-8.17,25.98c-.42,1.04-.66,2.09-.75,3.1-.07.24-.13.47-.17.71-.42.73-.7,1.55-.77,2.44-.01.13-1.06,13.42-2.25,23.62-.37,3.19-6.6,10.67-12.19,15.66-1,.9-1.59,2.07-1.81,3.3l-12.4-12.4-1.77,1.77,22.63,22.63,1.77-1.77-3.6-3.6c1.01-.18,1.99-.63,2.81-1.36,2.47-2.21,14.87-13.67,15.95-22.89.59-5.03,1.14-10.79,1.56-15.41,5.88,5.5,11.28,12.05,11.54,16.38.29,5.06.39,8.26.47,11.07.11,3.61.2,6.73.66,12.29.09,1.03.45,1.97,1,2.76h-17.08v2.5h32v-2.5h-5.48c.72-1.05,1.1-2.35.99-3.71-.44-5.26-.52-8.09-.63-11.69-.09-2.89-.18-6.18-.49-11.4-.37-6.41-4.52-13.5-12.69-21.67-1.25-1.25-2.49-2.42-3.66-3.48.28-.47.53-.97.75-1.51l6.76-16.44c1.12,1.09,2.3,2.22,3.54,3.37,1.55,1.44,3.6,2.16,6.2,2.16s5.92-.76,9.79-2.29c1.22-.48,2.39-1,3.46-1.5l-7.36,68.1c-.09.86.53,1.63,1.39,1.72.06,0,.11,0,.17,0,.79,0,1.47-.59,1.55-1.4l7.57-70.08c1.24-.65,2.04-1.11,2.11-1.15,1.99-1.16,2.66-3.71,1.5-5.7Zm-67.91,3.85l6.07-18.66c1.34-4.1,5.75-6.35,9.85-5.01l1.16.38c4.1,1.34,6.35,5.75,5.01,9.85l-6.07,18.66c-1.34,4.1-5.75,6.35-9.85,5.01l-1.16-.38c-4.1-1.34-6.35-5.75-5.01-9.85Zm31.93-21.43c-1.26-4.38,1.27-8.95,5.65-10.21,4.38-1.26,8.95,1.27,10.21,5.65,1.26,4.38-1.27,8.95-5.65,10.21-4.38,1.26-8.95-1.27-10.21-5.65Z" fill="#1c1b1a"/></svg>