<?xml version="1.0" encoding="UTF-8"?><svg id="Layer_1" xmlns="http://www.w3.org/2000/svg" width="71" height="92" viewBox="0 0 71 92"><path d="m45.64,75.53c0,.4,0,.67,0,.94,0,4.2,0,8.41,0,12.61,0,1.81-1.08,2.52-2.72,1.77-11.11-5.07-22.22-10.15-33.34-15.21-.98-.45-1.38-1.08-1.37-2.16.02-23.81.01-47.62.02-71.43,0-1.49.56-2.05,2.04-2.05C27.42,0,44.59,0,61.76,0c1.48,0,2.04.56,2.04,2.06,0,23.81,0,47.62,0,71.43,0,1.51-.53,2.04-2.05,2.04-5.03,0-10.07,0-15.1,0-.3,0-.59,0-1.01,0ZM11.24,3.91v1.05c0,22.4,0,44.8-.02,67.2,0,.65.19.97.79,1.24,9.91,4.5,19.8,9.03,29.7,13.55.24.11.5.2.85.34v-.85c0-22.48,0-44.95.01-67.43,0-.64-.23-.91-.78-1.16-8.58-3.9-17.15-7.82-25.73-11.73-1.55-.71-3.1-1.42-4.83-2.21Zm34.4,68.51h15.07V3.12H17.22c.2.23.43.35.67.46,8.73,3.99,17.46,7.99,26.21,11.94,1.13.51,1.56,1.21,1.56,2.43-.03,17.87-.02,35.74-.02,53.61,0,.27,0,.54,0,.85Zm-10.05-20.36c.01,1.05.58,1.69,1.49,1.71.93.02,1.55-.59,1.57-1.63.03-1.61.02-3.21,0-4.82-.01-1.03-.64-1.66-1.56-1.64-.89.02-1.48.65-1.5,1.64-.02.8,0,1.61,0,2.41,0,.78,0,1.56,0,2.33Z" fill="#fff"/></svg>