<?xml version="1.0" encoding="UTF-8"?><svg id="Layer_1" xmlns="http://www.w3.org/2000/svg" width="40" height="20" viewBox="0 0 40 20"><path d="m23.75,13.75l.48,1.33-3.58-.63s-.06,0-.09,0c-.22,0-.39.2-.38.41l.19,3.6h-.75l.19-3.6s0-.06,0-.09c-.04-.22-.24-.36-.46-.32l-3.58.63.48-1.33c.04-.11,0-.23-.08-.3l-3.92-3.17.88-.41c.12-.06.18-.2.14-.33l-.77-2.38,2.26.48c.13.03.25-.04.3-.16l.44-1.03,1.76,1.89c.06.07.16.1.25.08.15-.03.24-.17.21-.32l-.85-4.38,1.36.79s0,0,.02.01c.13.07.3.01.36-.12l1.38-2.72,1.38,2.72s0,.01,0,.02c.08.13.24.17.37.1l1.36-.79-.85,4.38c-.02.09.01.18.08.25.11.1.28.1.38-.01l1.76-1.89.44,1.03c.05.12.18.18.3.16l2.26-.48-.77,2.38c-.04.13.02.27.14.33l.88.41-3.92,3.17c-.09.07-.13.19-.09.3ZM10,0H0v20h10V0Zm30,0h-10v20h10V0Z" fill="#7f7f7f"/></svg>