<?xml version="1.0" encoding="UTF-8"?><svg id="Layer_1" xmlns="http://www.w3.org/2000/svg" width="420" height="120" viewBox="0 0 420 120"><path d="m278.76,107.31H-.24v-8h279v8Zm88.25-88.16c4.2-1.21,6.62-5.59,5.41-9.79-1.21-4.2-5.59-6.62-9.79-5.42-4.2,1.21-6.62,5.59-5.41,9.79,1.21,4.2,5.59,6.62,9.79,5.42Zm32.04,81.93c-1.87,4.54-7.77,6.66-12.79,6.75-.47,0-1.67.01-3.41.01-12.94,0-56.09-.2-58.16-.21-.97,0-1.75-.79-1.74-1.76,0-.96.79-1.74,1.75-1.74h0c.1,0,2.07,0,5.24.02-14.6-5.67-49.42-19.31-51.22-20.01-.9-.35-1.34-1.37-.99-2.27.35-.9,1.36-1.34,2.27-.99.32.12,18.99,7.44,34.97,13.68-.86-2.68.44-5.62,3.08-6.74,7.99-3.4,16.26-8.83,17.07-11.19,1.75-10.04,4.15-22.62,4.18-22.75.12-.63.35-1.22.66-1.74.04-.23.09-.46.16-.69.08-.97.31-1.98.72-2.98l6.56-20.85c-5.18.6-11.9,1.9-13.26,3.42-2.93,3.59-4.8,6.34-5.86,8.01.15.12.28.28.36.46.28.63,0,1.37-.64,1.65l-1.47.65c-.74.78-1.77,1.23-2.82,1.25l-43.88,19.41.73,1.57c.29.63.02,1.37-.61,1.66-.17.08-.35.12-.52.12-.47,0-.92-.27-1.13-.72l-.74-1.61-1.35.6c-.16.07-.34.11-.5.11-.48,0-.94-.28-1.14-.74-.28-.63,0-1.37.64-1.65l1.31-.58-.68-1.47c-.29-.63-.02-1.37.61-1.66.62-.29,1.37-.02,1.66.61l.7,1.51,41.84-18.51c-1.04-1.19-1.32-2.94-.56-4.43.09-.18,2.27-4.41,7.89-11.29,4.74-5.8,21.71-6.62,24.19-6.7,1.47-.73,3.11-.71,4.59.03l7.49,3.74c.98.5,1.8.87,2.34,1.36.69.42,1.25,1.05,1.58,1.85.05.11,1.84,4.23,7.52,12.34,1.4.8,7.3-.35,12.05-2.37,2.03-.86,4.38.08,5.24,2.11.56,1.31.36,2.74-.39,3.83l-8.35,62.15c.98,0,1.66,0,1.98,0,3.87-.07,8.41-1.66,9.61-4.59.37-.89,1.39-1.32,2.28-.95.89.37,1.32,1.39.95,2.28Zm-42.5-47.93c-.21.51-.45.99-.72,1.44,1.13,1.02,2.32,2.14,3.51,3.34,7.83,7.84,11.81,14.64,12.17,20.79.29,5.01.38,8.15.47,10.93.1,3.45.18,6.17.6,11.21.11,1.27-.23,2.47-.88,3.46,3.96.01,7.43.02,10,.02l8.1-60.31c-2.77,1.1-7.77,2.79-12.35,2.79-3.32,0-6.41-.89-8.27-3.53-2.29-3.26-4-5.95-5.27-8.07l-7.37,17.92Zm-5.73,51.1c3.87.02,7.84.03,11.67.04-.47-.73-.78-1.59-.86-2.52-.44-5.33-.53-8.33-.64-11.79-.08-2.7-.17-5.77-.45-10.62-.25-4.33-5.86-10.96-11.76-16.37-.83,4.47-1.92,10.38-2.82,15.58-.83,4.75-5.03,9.23-13.24,14.1-4.2,2.49-8.25,4.35-9.75,5.02,7.46,2.91,13.21,5.14,14.34,5.56,3.63,1.33,8.44,1.48,10.62-.81.66-.7,1.77-.73,2.47-.06.52.5.67,1.24.43,1.88Z" fill="#1c1b1a"/></svg>