<?xml version="1.0" encoding="UTF-8"?><svg id="Layer_1" xmlns="http://www.w3.org/2000/svg" width="760" height="118" viewBox="0 0 760 118"><path d="m669.28,77.93c.4-.22.8-.44,1.18-.66,2.44-1.44,4.9-1.74,6.53-1.74,1.24,0,2.07.17,2.17.19.12.03.23.06.34.11.22.09.56.23,1,.39-.51-1.98-.97-4.06-1.32-6.17-.72-4.27.34-8.34,3.06-11.76,4.36-5.48,12.49-8.4,19.38-9.94l-9.62-10.35c-1.45.47-5.05,1.99-10.62,6.71-5.78,4.89-13.29,6.23-14.13,6.37-.27.04-.54.07-.8.07-2.35,0-4.41-1.69-4.81-4.07-.45-2.65,1.35-5.16,4.01-5.61.06,0,5.63-.99,9.4-4.19,7.37-6.23,12.51-8.24,15.11-8.88h0l10.31-4.19c.35-.15.71-.31,1.07-.47.62-.46,1.36-.79,2.18-.92.03,0,.14-.02.32-.05.92-.29,1.84-.45,2.75-.39,3.29-.45,8.99-1.17,16.1-1.81,10.04-.9,15.1-4.17,15.11-4.17,2.22-1.53,5.27-.98,6.81,1.24,1.54,2.21.98,5.25-1.24,6.78-.7.48-7.19,4.73-19.79,5.86-2.95.27-5.67.55-8.06.82l13.14,17.26c3.12,3.23,3.29,8.1.39,10.88l-.18.09c-.7.75-1.58,1.36-2.61,1.74-.03,0-1.02.38-2.75,1.17-.73.57-1.56.95-2.44,1.18-2.97,1.5-7.04,3.76-11.72,6.95-.09,2.97,2,10.27,4.9,17.27,3.98,1.31,7.67,2.52,10.66,3.5,3.61,1.19,6.43,2.11,7.88,2.59,3.97,1.32,5.11,3.77,5.36,5.6.56,4.07-2.77,8.32-6.09,10.55-4.74,3.18-10,4.93-14.82,4.93-1.11,0-2.18-.09-3.19-.28-2.42-.44-10.96-5.49-24.72-13.76-7.81-4.69-15.18-9.11-19.1-11.12-4.19-2.15-6.07-4.08-6.11-6.26-.04-2.67,2.64-4.15,5-5.45h-.04Zm28.34-14.4c-2.18.88-3.92,1.91-4.84,3.07-.39.49-.42.76-.34,1.23.89,5.27,2.62,10.52,3.82,13.78.65.22,1.31.44,1.98.66-1.93-6.4-3.39-13.7-.62-18.73h0Zm-25.55,22.85c4.03,2.07,11.46,6.53,19.32,11.25,9.08,5.45,21.51,12.92,23.49,13.29.8.15,1.65.22,2.53.22,4.1,0,8.64-1.53,12.77-4.3,2.81-1.88,4.79-4.97,4.5-7.02-.06-.43-.24-1.76-2.88-2.63-1.45-.48-4.26-1.4-7.87-2.59-2.3-.75-4.9-1.61-7.67-2.52.76,3.06-.74,6.33-3.72,7.69-.91.42-1.86.61-2.8.61-2.55,0-4.99-1.45-6.12-3.91-.1-.22-2.07-4.52-3.96-9.88-.58-.19-1.16-.39-1.74-.58.75,3.11-.81,6.4-3.86,7.71-.87.38-1.78.55-2.67.55-2.6,0-5.08-1.51-6.18-4.04-.11-.26-1.83-4.23-3.5-9.71-1.62-.57-2.82-1.01-3.47-1.27-.64-.1-3.31-.39-5.91,1.15-.4.24-.83.47-1.27.72-.97.53-2.97,1.64-3.11,2.19,0,0,.16,1.04,4.12,3.07h0Zm28.25-64.09c3.94-3.6,4.2-9.71.58-13.63s-9.75-4.18-13.68-.58c-3.94,3.6-4.2,9.71-.58,13.63s9.74,4.18,13.68.58Zm53.6,72.9c1.44,0,2.6-1.16,2.6-2.59s-1.16-2.59-2.6-2.59-2.6,1.16-2.6,2.59,1.16,2.59,2.6,2.59Zm-6.58,4.11c0,.59.48,1.07,1.07,1.07s1.07-.48,1.07-1.07-.48-1.07-1.07-1.07-1.07.48-1.07,1.07Zm3.67,15.54c0,1.26,1.03,2.28,2.29,2.28s2.29-1.02,2.29-2.28-1.03-2.29-2.29-2.29-2.29,1.02-2.29,2.29Zm-11.77-24.53c.76,0,1.38-.61,1.38-1.37s-.62-1.37-1.38-1.37-1.38.61-1.38,1.37.62,1.37,1.38,1.37Zm-85.17-20.72c0,1.01.82,1.83,1.83,1.83s1.84-.82,1.84-1.83-.82-1.83-1.84-1.83-1.83.82-1.83,1.83Zm7.34,4.42c0,.76.62,1.37,1.38,1.37s1.38-.61,1.38-1.37-.62-1.37-1.38-1.37-1.38.61-1.38,1.37Zm3.52-15.39c-1.6,0-2.91,1.3-2.91,2.89s1.3,2.89,2.91,2.89,2.91-1.3,2.91-2.89-1.3-2.89-2.91-2.89ZM94.82,19.97c4.2-1.21,6.62-5.59,5.41-9.79s-5.59-6.62-9.79-5.42c-4.2,1.21-6.62,5.59-5.41,9.79,1.21,4.2,5.59,6.62,9.79,5.42Zm31.09,79.65c-.89-.37-1.92.06-2.28.95-1.2,2.92-5.75,4.52-9.61,4.59h-1.98l8.35-62.15c.75-1.09.95-2.53.39-3.83-.86-2.03-3.21-2.98-5.24-2.11-4.74,2.01-10.65,3.17-12.05,2.37-5.68-8.11-7.47-12.23-7.52-12.34-.33-.8-.9-1.43-1.58-1.85-.54-.5-1.36-.86-2.34-1.36l-7.49-3.74c-1.48-.74-3.12-.76-4.59-.03-2.47.08-19.45.9-24.19,6.7-5.62,6.88-7.8,11.12-7.89,11.29-.76,1.5-.48,3.24.56,4.43L6.6,61.05l-.7-1.51c-.29-.63-1.03-.9-1.66-.61s-.9,1.03-.61,1.66l.68,1.47-1.31.58c-.63.28-.92,1.02-.64,1.65.21.47.66.74,1.14.74.17,0,.34-.03.5-.11l1.35-.6.74,1.61c.21.46.66.72,1.13.72.18,0,.35-.04.52-.12.63-.29.9-1.03.61-1.66l-.73-1.57,43.88-19.41c1.06-.02,2.08-.46,2.82-1.25l1.47-.65c.63-.28.92-1.02.64-1.65-.08-.19-.21-.34-.36-.46,1.06-1.68,2.93-4.43,5.86-8.01,1.36-1.52,8.07-2.82,13.26-3.42l-6.56,20.85c-.4,1-.64,2-.72,2.98-.07.23-.12.46-.16.69-.31.53-.54,1.11-.66,1.74-.02.13-2.43,12.71-4.18,22.75-.81,2.36-9.08,7.79-17.07,11.19-2.64,1.12-3.95,4.06-3.08,6.74-15.98-6.24-34.66-13.56-34.97-13.68-.9-.35-1.91.09-2.27.99-.35.9.09,1.91.99,2.27,1.79.7,36.62,14.35,51.22,20.01-3.16-.01-5.13-.02-5.24-.02h0c-.96,0-1.74.78-1.75,1.74,0,.97.77,1.75,1.74,1.76,2.07,0,45.22.21,58.16.21,1.74,0,2.94,0,3.41-.01,5.02-.09,10.91-2.21,12.79-6.75.37-.89-.06-1.92-.95-2.28h.02Zm-34.19-63.57c1.27,2.12,2.98,4.8,5.27,8.07,1.86,2.65,4.95,3.53,8.27,3.53,4.58,0,9.58-1.69,12.35-2.79l-8.1,60.31c-2.57,0-6.04-.01-10-.02.65-.99.99-2.19.88-3.46-.42-5.04-.5-7.76-.6-11.21-.08-2.78-.18-5.92-.47-10.93-.36-6.15-4.34-12.95-12.17-20.79-1.2-1.2-2.39-2.32-3.51-3.34.27-.45.51-.93.72-1.44l7.37-17.92h0Zm-13.53,67.14c-.7-.67-1.81-.64-2.47.06-2.18,2.29-6.99,2.14-10.62.81-1.13-.41-6.88-2.65-14.34-5.56,1.5-.66,5.55-2.53,9.75-5.02,8.21-4.87,12.42-9.35,13.24-14.1.9-5.2,1.99-11.11,2.82-15.58,5.9,5.41,11.51,12.03,11.76,16.37.28,4.85.37,7.92.45,10.62.1,3.46.19,6.46.64,11.79.08.93.39,1.79.86,2.52-3.82-.01-7.8-.03-11.67-.04.24-.64.09-1.38-.43-1.88h.01ZM480.81,20.21c4.08,2.74,9.61,1.67,12.36-2.4s1.67-9.59-2.4-12.34c-4.07-2.74-9.61-1.67-12.35,2.4-2.75,4.07-1.67,9.59,2.4,12.34h0Zm22.08,37.92c-3.2,0-6.25.59-9.08,1.66-3.04-6.86-5.74-13.04-7.01-16.23,4.04-.06,8.09-.86,10.91-1.57-.41.43-.82.85-1.23,1.23-.7.66-.73,1.75-.08,2.45.66.7,1.76.73,2.46.08,1.37-1.28,5.85-5.72,5.85-8.87,0-3.33-2.59-7.34-6.77-8-1.97-.31-10.57-1.04-13.47,1.37-1.09.91-1.79,2.28-2.17,3.88-.29-.11-.5-.24-.63-.39-5.57-10-5.75-15.98-5.75-16.04v.06h-.08l-.02-.34c-.84-3.56-4.54-5.65-9.48-3.88l-27.15,11.21c-3.4,1.09-5.83,3.54-6.48,6.14-.59,1.35-.69,2.89-.21,4.35-1.03.19-1.85.48-2.32.9-1.66,1.49-.69,6.97,4.64,7.77.56.08,1.08.09,1.59.03.99,2.44,2.05,5.27,2.94,8.21l-7.81,10.31c-4.08-2.74-8.99-4.33-14.27-4.33-14.15,0-25.67,11.5-25.67,25.63s11.52,25.63,25.67,25.63c11.29,0,20.9-7.32,24.32-17.46.39,2.93,2.85,5.23,5.9,5.34h.22c3.31,0,6.06-2.62,6.18-5.95,0-.15.03-.87.06-2l6.4.64c.19.03.39.05.58.06h.14s.05.02.07.02h.03c.07,0,.15.01.22.01,4.06,0,7.37-3.23,7.37-7.19,0-2.51-1.33-4.73-3.34-6.01.48-1.57,1.08-3.05,1.76-4.44,0,.09.01.17.02.26.23,3.25,2.95,5.73,6.16,5.73.15,0,.3,0,.45-.02,2.02-.14,3.74-1.25,4.76-2.83-.88,2.58-1.36,5.34-1.36,8.22,0,14.13,11.52,25.63,25.67,25.63s25.67-11.5,25.67-25.63-11.52-25.63-25.67-25.63h0Zm-24.68-2.78c-.14-1.71-.3-3.67-.49-6.27-.04-.56-.12-1.12-.22-1.66l6.94-.03c.06,0,.12,0,.18-.02.47,1.12,1.02,2.4,1.61,3.78-1.49.59-4.52,1.93-8.01,4.21h0Zm19.19-23.03c.32.05.62.15.91.27-.26.03-.52.08-.77.15-4.28,1.26-8.66,1.84-11.76,1.83.22-.75.53-1.33.91-1.64,1.2-.99,7.04-1.19,10.7-.61h0Zm-14.4,11.05c.06.17.13.35.21.55l-6.85.03c-1.72-3.62-5-6.87-9.83-9.71l4.65-1.33c.74,1.62,1.61,3.35,2.64,5.2,1.84,3.3,5.31,4.78,9.19,5.27h-.01Zm-44.06,35.61l-17.51,2.59,10.76-14.2c3.34,3.03,5.75,7.06,6.75,11.61Zm-18.8,4.28l19.07-2.82c.16,1.08.25,2.19.25,3.32,0,.88-.06,1.75-.16,2.61l-20.01-2,.84-1.11h.01Zm34.03-5.03l1.85-.27c-.99,1.04-1.67,2.36-1.89,3.82.02-1.13.03-2.32.04-3.55Zm0-1.5c.02-4.08-.03-8.39-.2-12.04l4.97,11.33-4.77.71Zm-5.91-36.45c.33,0,.65-.02.94-.03,3.5,1.11,6.79,2.41,9.49,3.78l-9,.04c-.47-1.32-.95-2.59-1.42-3.78h0Zm-7.78,16.13c.4,1.76.72,3.52.89,5.21.37,3.6.46,9.25.44,14.63-1.4-4.56-4.04-8.57-7.53-11.66l6.2-8.18h0Zm-23.22,49.51c-12.24,0-22.19-9.94-22.19-22.16s9.96-22.16,22.19-22.16c4.49,0,8.67,1.34,12.16,3.64l-13.3,17.55c-.58.77-.43,1.85.34,2.43.07.05.14.1.21.14.12.16.3.27.51.29l21.88,2.18c-1.92,10.27-10.97,18.08-21.81,18.08h0Zm36.73-18.08c.03-1.17.06-2.56.09-4.12.21,1.71,1.03,3.23,2.25,4.36l-2.35-.23h.01Zm7.41-.27c-2.69,0-4.89-2.11-4.89-4.71s2.19-4.71,4.89-4.71,4.89,2.11,4.89,4.71-2.19,4.71-4.89,4.71Zm.75-11.87h-.1l-9.38-21.41c-.5-2.29-1.13-4.57-1.82-6.75l13.06-.06c.89.87,1.42,1.71,1.48,2.51.35,4.71.59,7.47.83,10.14.16,1.82.32,3.68.52,6.19-1.88,2.71-3.48,5.82-4.58,9.38h0Zm17.4-3.92c-.44-6.14-.72-9.36-.99-12.39,3.98-2.86,7.59-4.46,9.05-5.05.96,2.18,1.99,4.53,3.04,6.9-4.93,2.68-8.88,6.93-11.19,12.07.09-.5.13-1.01.09-1.54h0Zm23.34,34.14c-12.24,0-22.19-9.94-22.19-22.16,0-8.29,4.59-15.54,11.37-19.33,4.28,9.62,8.48,18.88,8.83,19.64.29.64.92,1.02,1.59,1.02.24,0,.48-.05.72-.16.87-.4,1.26-1.42.87-2.3-2.39-5.26-5.7-12.61-8.84-19.66,2.39-.88,4.97-1.36,7.67-1.36,12.24,0,22.19,9.94,22.19,22.16s-9.96,22.16-22.19,22.16h-.02ZM252.62,28.57c-1.84-1.75-4.75-1.68-6.5.15-4.67,4.88-10.88,9.4-13.14,9.61-10.12-7.91-18.75-15.74-18.84-15.82-.41-.37-.86-.65-1.34-.84-2.17-1.03-4.85-.66-7.2,1.46-5.18-1.46-10.42-2.19-13.71-.71-1.95.88-3.35,2.46-3.93,4.43-3.54,11.97-5.75,19.79-5.77,19.86-.69,2.44.74,4.97,3.18,5.65.18.05.35.08.53.11-.05.12-.11.24-.15.36-.15.23-.28.46-.4.71-.42.4-.8.86-1.1,1.39-.02.04-2.49,4.21-10,13.64-1.96,1.47-11.25.83-18.85-1.31-3.36-.95-6.86.99-7.81,4.34-.96,3.35.99,6.83,4.35,7.79,3.07.87,10.02,2.59,16.92,2.59,5.96,0,11.88-1.28,15.24-5.5,4.8-6.02,7.7-10.07,9.33-12.48,10.09,4.46,18.35,10.83,17.63,13.99-1,4.4-1.7,7.37-2.26,9.75-1.07,4.52-1.71,7.25-3.09,14.14-.69,3.41,1.54,6.73,4.96,7.42.42.08.84.12,1.25.12,2.95,0,5.59-2.07,6.19-5.07,1.34-6.68,1.96-9.33,3-13.73.57-2.41,1.28-5.41,2.28-9.86,1.85-8.17-3.15-15.93-14.88-23.07-.77-.47-1.54-.92-2.31-1.35l13.49-16.96c2.44,2.02,5.14,4.21,7.97,6.41,1.59,1.24,3.32,1.72,5.08,1.72,4.92,0,9.96-3.79,11.96-5.31,4.34-3.27,7.93-7.01,8.08-7.17,1.75-1.83,1.69-4.73-.15-6.48v.02Zm-56.2,2.12c.83-.02,2.02.14,3.46.45l-6.43,9.67c.81-2.81,1.81-6.22,2.97-10.13h0Zm25.34-8.16c5.03,0,9.1-4.06,9.1-9.07s-4.07-9.07-9.1-9.07-9.1,4.06-9.1,9.07,4.07,9.07,9.1,9.07Zm144.31,12.16c-.07.04-.86.5-2.11,1.15l-7.57,70.08c-.09.8-.76,1.4-1.55,1.4h-.17c-.86-.09-1.48-.86-1.39-1.72l7.36-68.1c-1.07.5-2.24,1.01-3.46,1.5-3.86,1.53-7.12,2.29-9.79,2.29s-4.65-.72-6.2-2.16c-1.23-1.15-2.42-2.28-3.54-3.37l-6.76,16.44c-.22.53-.47,1.03-.75,1.51,1.18,1.06,2.42,2.23,3.66,3.48,8.17,8.17,12.32,15.26,12.69,21.67.3,5.22.4,8.5.49,11.4.11,3.59.19,6.43.63,11.69.11,1.37-.26,2.66-.99,3.71h5.48v2.5h-32v-2.5h17.08c-.55-.8-.92-1.73-1-2.76-.46-5.56-.56-8.68-.66-12.29-.08-2.82-.18-6.01-.47-11.07-.25-4.34-5.66-10.88-11.54-16.38-.42,4.62-.97,10.37-1.56,15.41-1.08,9.22-13.47,20.69-15.95,22.89-.82.73-1.8,1.19-2.81,1.36l3.6,3.6-1.77,1.77-22.63-22.63,1.77-1.77,12.4,12.4c.21-1.23.8-2.4,1.81-3.3,5.58-4.99,11.82-12.48,12.19-15.66,1.19-10.2,2.24-23.49,2.25-23.62.07-.89.35-1.72.77-2.44.04-.24.1-.48.17-.71.08-1.02.33-2.07.75-3.1l8.17-25.98c1.67-4.57,5.36-5.95,8.4-4.43,0,0,3.55,2.7,6.03,6.44,2.51,2.63,5.83,5.99,9.63,9.54,1.93.62,9.07-1.93,14.96-5.32l.94-8.69c.09-.86.87-1.48,1.72-1.39.86.09,1.48.86,1.39,1.72l-.84,7.8c1.08.25,2.06.93,2.66,1.96,1.16,1.99.49,4.54-1.5,5.7v-.02Zm-61.39,8l1.16.38c4.1,1.34,8.51-.91,9.85-5.01l6.07-18.66c1.34-4.1-.91-8.51-5.01-9.85l-1.16-.38c-4.1-1.34-8.51.91-9.85,5.01l-6.07,18.66c-1.34,4.1.91,8.51,5.01,9.85Zm37.12-25.63c4.38-1.26,6.91-5.83,5.65-10.21s-5.83-6.91-10.21-5.65c-4.38,1.26-6.91,5.83-5.65,10.21,1.26,4.38,5.83,6.91,10.21,5.65Zm238.92.59l-30.97,10.72,2.62,7.56c.6,1.75-.3,3.63-2.05,4.23l-1.84.64c-2.35.81-4.94-.51-5.64-2.89-.13-.47-.2-.98-.17-1.48l.67-6.32c.4-2.79,1.28-3.36,2.99-3.97l33.32-11.52c.2,1.07.57,2.08,1.07,3.03h0Zm40.57,4.7l-7.49-18.47c-.9-2.28-3.53-3.36-5.77-2.45-1.78.74-2.82,2.48-2.75,4.33l-6.01,2.08c-1.51-2.65-4.4-4.47-7.65-4.47-.13,0-.24,0-.37.04-4.7.2-8.46,4.06-8.46,8.8,0,.43.04.87.1,1.31.17,1.11.54,2.12,1.04,3.06,1.48,2.55,4.16,4.33,7.32,4.47h.37c4.87,0,8.84-3.97,8.84-8.84,0-.43-.04-.87-.1-1.31l5.94-2.05,5.07,12.52-6.24,2.18-.04-.13-13.87,4.8c-4.27,1.48-6.51,6.15-5.04,10.41l8.56,24.69c.2.57.47,1.11.74,1.65l-2.31,19.52-9.84,17.47c-1.41,2.48-.54,5.68,1.98,7.05.81.47,1.68.67,2.55.67,1.81,0,3.56-.94,4.53-2.65l10.34-18.37c.34-.6.54-1.24.64-1.95l2.08-17.33c.4-.07.81-.17,1.21-.34l.6-.2v35.6c0,2.86,2.31,5.17,5.17,5.17s5.17-2.31,5.17-5.17v-42.89c0-.47-.1-.94-.2-1.37-.04-.67-.13-1.31-.34-1.92l-9.03-26.23,10.68-3.76c1.14-.4,2.08-1.24,2.59-2.35.4-1.18.43-2.42,0-3.56h0Z" fill="#fff"/></svg>