<?xml version="1.0" encoding="UTF-8"?><svg id="Calque_1" xmlns="http://www.w3.org/2000/svg" width="5.56in" height="6.39in" viewBox="0 0 400 460"><path d="m172.05,42.44h24.09v7.02h-31.11V0h7.02v42.44Zm35.42,7.18v-16.27L219.44,0h7.02l11.97,33.19v16.27h-7.02v-11.49h-16.91v11.49h-7.02v.16h0Zm22.82-18.67l-7.18-19.78h-.16l-7.18,19.78h14.52,0ZM.05,86.48h31.27v141.52H.05V86.48Zm73.55,105.94v-70.2c0-18.19-13.72-33.19-31.27-35.42v141.05c17.55-2.23,31.27-17.23,31.27-35.42h0ZM.05,239.01h31.27v152.69H.05v-152.69Zm73.55,117.11v-81.53c0-18.19-13.72-33.19-31.27-35.26v152.21c17.55-2.23,31.27-17.23,31.27-35.42Zm35.11-81.53v81.53c0,18.19,13.72,33.19,31.27,35.26v-152.21c-17.55,2.23-31.27,17.23-31.27,35.42Zm73.55-46.59v-105.78c0-18.19-13.72-33.19-31.27-35.26v141.2h31.27v-.16Zm-31.27,11.01h31.27v152.69h-31.27v-152.69Zm66.53-116.79v30.32c0,18.19,13.72,33.19,31.27,35.42v-101.16c-17.71,2.07-31.27,17.23-31.27,35.42Zm73.4,0c0-18.19-13.72-33.19-31.27-35.26v76.9h31.27v-41.64h0Zm-182.21,0v41.64h31.27v-77.06c-17.55,2.07-31.27,17.23-31.27,35.42Zm290.86,70.2v-70.04c0-18.19-13.72-33.19-31.27-35.26v140.73c17.71-2.23,31.27-17.23,31.27-35.42h0Zm-73.39,46.42v117.43c0,18.19,13.72,33.19,31.27,35.26v-152.85h-31.27v.16Zm73.39,117.59v-41.8h-31.27v77.06c17.71-2.07,31.27-17.23,31.27-35.26Zm-182.05-.32c0,18.19,13.72,33.19,31.27,35.42v-152.53h-31.27v117.11Zm73.4,0v-121.42c0-18.19-13.72-33.19-31.27-35.26v192.1c17.55-2.23,31.27-17.23,31.27-35.42Zm-56.16,76.01h-3.77c-2.08,0-3.58,1.7-3.58,3.58v15.28c0,2.08,1.7,3.58,3.58,3.58h3.58c2.08,0,3.58-1.7,3.58-3.58v-2.45h4.53v2.45c0,4.53-3.58,8.3-8.12,8.3h-3.58c-4.53,0-8.12-3.77-8.12-8.3v-15.28c0-4.53,3.58-8.12,8.12-8.12h3.58c4.53,0,8.12,3.58,8.12,8.12v2.45h-4.34v-2.45c0-2.08-1.7-3.58-3.58-3.58Zm23.74,22.65h15.47v4.53h-20v-31.7h4.53v27.18h0Zm46.4-27.2v4.53h-7.74v22.65h7.74v4.53h-20v-4.53h7.74v-22.65h-7.74v-4.53h20Zm31.87,0v31.7h-6.6l-8.87-24.16v24.16h-4.53v-31.7h6.6l8.87,24.16v-24.16h4.53Zm31.86,0v4.53h-7.74v22.65h7.74v4.53h-20v-4.53h7.74v-22.65h-7.74v-4.53s20,0,20,0ZM.05,41.48h139.93v7.5H.05v-7.5Zm259.59,0h139.93v7.5h-139.93v-7.5Zm66.54,80.74c0-18.19,13.72-33.19,31.27-35.42v141.2h-31.27v-105.78Zm65.2,309.91h-3.77c-2.08,0-3.58,1.7-3.58,3.58v15.28c0,2.08,1.7,3.58,3.58,3.58h3.58c2.08,0,3.58-1.7,3.58-3.58v-2.45h4.53v2.45c0,4.53-3.58,8.3-8.12,8.3h-3.58c-4.53,0-8.12-3.77-8.12-8.3v-15.28c0-4.53,3.58-8.12,8.12-8.12h3.58c4.53,0,8.12,3.58,8.12,8.12v2.45h-4.34v-2.45c0-2.08-1.7-3.58-3.58-3.58ZM4.91,449.12v1.89c0,2.08,1.7,3.96,3.96,3.96h3.02c2.26,0,3.96-1.51,3.96-3.4,0-6.23-14.91-7.55-14.91-16.23,0-4.53,3.58-7.55,8.49-7.55h2.08c4.72,0,8.49,3.77,8.49,8.49v1.32h-4.72v-1.32c0-2.26-1.7-3.96-3.96-3.96h-2.08c-2.45,0-3.96,1.14-3.96,3.02,0,4.72,14.91,6.6,14.91,16.23,0,4.53-3.58,7.93-8.49,7.93h-3.02c-4.72,0-8.49-3.77-8.49-8.49v-1.89h4.72Zm38.85-2.45h-7.17v12.65h-4.53v-31.7h11.89c4.53,0,8.12,3.58,8.12,8.12v2.64c0,4.72-3.77,8.3-8.3,8.3Zm0-4.53c2.08,0,3.58-1.51,3.58-3.58v-2.64c0-2.08-1.51-3.58-3.58-3.58h-7.17v10.01h7.17v-.19h0Zm19.97-6.44c0-4.53,3.58-8.12,8.12-8.12h3.58c4.53,0,8.12,3.58,8.12,8.12v15.28c0,4.53-3.58,8.3-8.12,8.3h-3.58c-4.53,0-8.12-3.77-8.12-8.3v-15.28Zm15.47,15.47v-15.28c0-2.08-1.51-3.58-3.58-3.58h-3.58c-2.08,0-3.58,1.7-3.58,3.58v15.28c0,2.08,1.7,3.58,3.58,3.58h3.58c1.89,0,3.58-1.7,3.58-3.58Zm31.11,8.13l-5.86-12.65h-4.72v12.65h-4.53v-31.7h11.89c4.53,0,8.12,3.58,8.12,8.12v2.64c0,3.77-2.45,6.98-5.86,7.93l5.86,13.02h-4.91.01Zm-3.21-17.18c2.08,0,3.58-1.51,3.58-3.58v-2.64c0-2.08-1.51-3.58-3.58-3.58h-7.17v10.01h7.17v-.19h0Zm39.78-14.55v4.53h-7.74v27.18h-4.53v-27.18h-7.74v-4.53h20Zm13.47,21.52v1.89c0,2.08,1.7,3.96,3.96,3.96h3.02c2.26,0,3.96-1.51,3.96-3.4,0-6.23-14.91-7.55-14.91-16.23,0-4.53,3.58-7.55,8.49-7.55h2.08c4.72,0,8.49,3.77,8.49,8.49v1.32h-4.72v-1.32c0-2.26-1.7-3.96-3.96-3.96h-2.08c-2.45,0-3.96,1.14-3.96,3.02,0,4.72,14.91,6.6,14.91,16.23,0,4.53-3.58,7.93-8.49,7.93h-3.02c-4.72,0-8.49-3.77-8.49-8.49v-1.89h4.72Z" fill="#7f7f7f"/></svg>