<?xml version="1.0" encoding="UTF-8"?><svg id="Layer_1" xmlns="http://www.w3.org/2000/svg" width="27.78in" height="8.33in" viewBox="0 0 2000.16 599.76"><g id="BG"><rect x=".48" width="1999.2" height="599.76" fill="#fff" isolation="isolate" opacity=".08"/></g><g id="Grey" opacity=".4"><path d="m804.16,325.87h8v8h-8v-8Zm12,8h8v-8h-8v8Zm12,0h8v-8h-8v8Zm12,0h8v-8h-8v8Zm-177.71-82.66l5.86,16.09,2.14-.78-2.5-6.88,5.23-1.9c.53-.19.98-.27,1.35-.22.37.04.71.16,1,.35s.55.45.77.77c.22.32.43.67.63,1.03.22.36.41.75.57,1.15.16.4.32.77.46,1.12s.29.66.45.92c.16.27.34.46.55.57l2.39-.87c-.32-.19-.61-.44-.85-.75s-.46-.65-.67-1.02c-.2-.37-.39-.75-.55-1.15s-.33-.79-.5-1.17c-.19-.37-.39-.73-.6-1.06-.21-.33-.46-.61-.74-.84-.28-.23-.6-.4-.97-.5s-.8-.12-1.3-.04l-.02-.05c.88-.63,1.41-1.39,1.58-2.29.18-.9.09-1.84-.27-2.81-.48-1.31-1.28-2.18-2.42-2.62-1.14-.44-2.47-.38-4.01.18l-7.58,2.76h0Zm9.31,5.02l-4.47,1.63-2.04-5.62,5.32-1.94c1.01-.37,1.83-.38,2.47-.03.64.35,1.1.93,1.4,1.74.21.59.29,1.1.22,1.54-.07.44-.23.83-.49,1.18-.26.34-.6.63-1.02.87-.42.24-.88.45-1.38.63h-.01Zm22.68,1.57l-4.24-11.66-1.92.7,2.4,6.59c.19.53.3,1.04.32,1.53.02.5-.05.96-.22,1.4-.17.43-.43.82-.79,1.16s-.84.61-1.42.82c-.74.27-1.39.27-1.97,0-.57-.27-.99-.76-1.26-1.48l-2.87-7.89-1.92.7,2.79,7.67c.23.63.5,1.18.82,1.66.32.47.7.84,1.15,1.1s.97.4,1.56.42c.58.02,1.26-.11,2.03-.39.86-.31,1.54-.75,2.05-1.32s.83-1.29.98-2.16l.05-.02.67,1.85,1.8-.66v-.02h-.01Zm9.8-11.44l-6.7,2.44c-.13-.46-.19-.92-.17-1.38s.12-.89.29-1.29c.18-.4.43-.77.77-1.08.34-.32.75-.57,1.25-.75.48-.18.95-.25,1.41-.22.46.03.89.14,1.29.32.4.19.76.45,1.08.79s.58.73.77,1.17h.01Zm3.03,2.57l-1.89.69c.11.83-.02,1.52-.4,2.09-.38.56-.98.99-1.79,1.29-.63.23-1.22.32-1.76.28-.54-.04-1.03-.18-1.46-.43-.43-.24-.8-.57-1.1-.98-.3-.41-.54-.87-.71-1.39l8.73-3.18c-.23-.72-.56-1.44-1-2.16s-.99-1.34-1.64-1.85c-.65-.51-1.4-.86-2.24-1.04-.84-.18-1.78-.08-2.82.3-.8.29-1.48.71-2.03,1.25-.56.54-.99,1.18-1.28,1.89-.29.72-.44,1.5-.44,2.33s.16,1.7.48,2.58c.35.88.78,1.65,1.29,2.31.51.67,1.09,1.19,1.75,1.56s1.39.58,2.18.64c.79.05,1.66-.09,2.59-.43,1.32-.48,2.3-1.21,2.93-2.19s.84-2.17.62-3.57h0Zm17.96-15.22l2.03-.74c-.35-.88-.8-1.58-1.34-2.1-.54-.53-1.15-.9-1.84-1.13-.69-.23-1.42-.31-2.2-.25s-1.58.24-2.41.54c-.74.27-1.42.62-2.05,1.07-.63.44-1.15.96-1.56,1.54-.41.58-.67,1.23-.79,1.95-.11.71-.02,1.48.27,2.29.27.74.64,1.3,1.11,1.68.47.38,1.01.64,1.61.77s1.24.18,1.93.14c.68-.04,1.37-.1,2.06-.19s1.37-.18,2.03-.27c.67-.09,1.28-.11,1.85-.07.57.04,1.06.18,1.48.42s.73.64.93,1.19c.21.59.27,1.11.16,1.57-.1.46-.31.88-.62,1.24s-.7.67-1.15.94c-.46.27-.92.49-1.41.66-.6.22-1.22.36-1.84.41-.63.06-1.21,0-1.75-.15-.54-.16-1.04-.44-1.48-.83s-.78-.93-1.03-1.6l-2.03.74c.36.98.84,1.76,1.45,2.34.61.59,1.31,1,2.08,1.23.78.24,1.61.32,2.49.25.89-.07,1.78-.27,2.68-.59.74-.27,1.45-.62,2.13-1.07.68-.44,1.25-.97,1.71-1.57s.77-1.28.94-2.03c.16-.75.09-1.55-.23-2.41-.29-.8-.68-1.4-1.16-1.82-.48-.42-1.03-.71-1.65-.88-.61-.17-1.27-.24-1.96-.22s-1.38.07-2.08.16c-.69.08-1.37.17-2.04.27-.66.1-1.27.14-1.83.12s-1.04-.13-1.45-.33c-.41-.2-.7-.55-.88-1.05-.19-.53-.25-1-.18-1.43s.24-.81.5-1.14.59-.62,1-.87c.4-.25.83-.46,1.28-.62,1.11-.4,2.12-.48,3.02-.22s1.63.95,2.17,2.06h.05Zm4.62-7.02l5.86,16.09,1.92-.7-2.4-6.59c-.19-.53-.3-1.04-.32-1.53-.02-.5.05-.96.22-1.4.17-.43.43-.82.79-1.16s.84-.61,1.42-.82c.74-.27,1.39-.27,1.97,0,.57.27.99.76,1.26,1.48l2.87,7.89,1.92-.7-2.79-7.67c-.23-.63-.5-1.18-.82-1.66-.32-.47-.7-.84-1.15-1.1-.45-.26-.97-.4-1.56-.43-.59-.02-1.27.1-2.03.38-.35.13-.69.29-1.03.5s-.65.45-.93.74c-.28.28-.51.59-.69.94s-.28.73-.3,1.14l-.05.02-2.24-6.16-1.92.7v.03h0Zm25.31,1.16l-6.7,2.44c-.13-.46-.19-.92-.17-1.38s.12-.89.29-1.29c.18-.4.43-.77.77-1.08.34-.32.75-.57,1.25-.75.48-.18.95-.25,1.41-.22.46.03.89.14,1.29.32.4.19.76.45,1.08.79s.58.73.77,1.17h.01Zm3.03,2.57l-1.89.69c.11.83-.02,1.52-.4,2.09-.38.56-.98.99-1.79,1.29-.63.23-1.22.32-1.76.28-.54-.04-1.03-.18-1.46-.43-.43-.24-.8-.57-1.1-.98-.3-.41-.54-.87-.71-1.39l8.73-3.18c-.23-.72-.56-1.44-1-2.16s-.99-1.34-1.64-1.85c-.65-.51-1.4-.86-2.24-1.04-.84-.18-1.78-.08-2.82.3-.8.29-1.48.71-2.03,1.25-.56.54-.99,1.18-1.28,1.89-.29.72-.44,1.5-.44,2.33s.16,1.7.48,2.58c.35.88.78,1.65,1.29,2.31.51.67,1.09,1.19,1.75,1.56s1.39.58,2.18.63,1.66-.09,2.59-.43c1.32-.48,2.3-1.21,2.93-2.19s.84-2.17.62-3.57v.02h0Zm11.98-.18l1.92-.7-3.63-9.97,2.26-.82-.62-1.69-2.26.82-.59-1.62c-.19-.51-.18-.9,0-1.18.19-.27.52-.49.98-.66.17-.06.35-.11.55-.16s.4-.07.59-.07l-.61-1.67c-.2,0-.43.04-.67.09s-.46.11-.64.18c-1.05.38-1.76.92-2.14,1.61-.37.69-.38,1.51-.04,2.45l.63,1.74-4.42,1.61-.59-1.62c-.19-.51-.18-.9,0-1.18.19-.27.52-.49.98-.66.17-.06.35-.11.55-.16s.4-.07.59-.07l-.61-1.67c-.2,0-.43.04-.67.09s-.46.11-.64.18c-1.05.38-1.76.92-2.14,1.61-.37.69-.38,1.51-.04,2.45l.63,1.74-1.96.71.62,1.69,1.96-.71,3.63,9.97,1.92-.7-3.63-9.97,4.42-1.61,3.63,9.97.04-.02h0Zm6.52-8.96c-.26-.71-.39-1.37-.4-1.99-.01-.62.08-1.17.27-1.67s.48-.92.85-1.28.81-.63,1.3-.81c.5-.18,1-.25,1.52-.22.51.03,1.01.18,1.47.43.47.26.9.62,1.28,1.1.39.48.71,1.07.97,1.78.26.71.39,1.37.4,1.99.01.62-.08,1.17-.28,1.66s-.48.91-.85,1.27-.81.63-1.3.81c-.5.18-1,.25-1.52.22-.51-.03-1-.17-1.47-.42-.46-.25-.89-.61-1.28-1.09s-.71-1.07-.97-1.78h.01Zm-2.03.74c.31.86.72,1.61,1.23,2.26s1.1,1.16,1.78,1.53c.68.37,1.43.59,2.25.64s1.69-.09,2.6-.42c.93-.34,1.69-.79,2.28-1.35s1.02-1.21,1.3-1.93c.28-.72.41-1.5.38-2.32-.03-.82-.2-1.66-.51-2.52s-.72-1.61-1.24-2.27c-.51-.66-1.11-1.17-1.79-1.55-.68-.37-1.43-.59-2.24-.65s-1.69.08-2.62.42c-.92.33-1.67.79-2.26,1.36s-1.03,1.22-1.31,1.95c-.28.72-.41,1.5-.38,2.33.03.83.2,1.68.51,2.53h.02,0Zm12.73-11.27l4.24,11.66,1.92-.7-1.89-5.19c-.27-.75-.44-1.44-.5-2.08-.06-.63,0-1.21.18-1.74s.51-.99.97-1.4c.46-.41,1.08-.75,1.85-1.03l-.74-2.03c-1.05.35-1.83.87-2.34,1.57-.51.7-.83,1.6-.95,2.72l-.05.02-.89-2.46-1.8.66h0Zm12.48,2.17c-.21-.57-.35-1.15-.43-1.73-.08-.59-.06-1.14.06-1.66s.36-.99.71-1.41c.36-.42.86-.75,1.51-.98.66-.24,1.27-.32,1.83-.24s1.06.27,1.5.57.83.69,1.16,1.18c.33.48.6,1.01.81,1.58.2.54.33,1.1.39,1.67.06.57.03,1.12-.11,1.64s-.38.99-.74,1.41-.86.75-1.51.98c-.62.22-1.2.3-1.74.23-.55-.07-1.04-.26-1.48-.56s-.83-.68-1.16-1.15c-.33-.47-.6-.97-.79-1.51v-.02h-.01Zm11.1,2.44l-5.86-16.09-1.92.7,2.18,6-.05.02c-.34-.27-.7-.46-1.09-.59-.39-.12-.79-.19-1.19-.21s-.78,0-1.15.07-.7.15-1,.26c-.89.32-1.61.77-2.16,1.33-.55.57-.95,1.21-1.19,1.92-.24.71-.34,1.47-.29,2.29.05.82.23,1.64.53,2.46.3.83.7,1.57,1.19,2.22s1.06,1.18,1.71,1.57c.65.4,1.36.64,2.15.72.79.09,1.64-.03,2.54-.36.81-.3,1.5-.71,2.08-1.24s.9-1.18.98-1.94l.05-.02.57,1.58,1.92-.7v.02h0Zm62.81,195.28l.09-2.28c-.92.09-1.73.33-2.44.72s-1.31.88-1.8,1.49c-.49.6-.87,1.3-1.14,2.09s-.43,1.63-.46,2.53c-.05,1.31.13,2.48.56,3.52.43,1.03,1.04,1.91,1.83,2.62.79.71,1.72,1.27,2.8,1.66,1.08.4,2.24.62,3.49.67s2.42-.06,3.52-.35c1.1-.28,2.06-.74,2.89-1.36s1.49-1.42,1.98-2.39c.5-.97.77-2.12.83-3.45.09-2.19-.44-3.94-1.59-5.25s-2.79-2.12-4.94-2.44l-.09,2.28c.7.08,1.35.25,1.95.51.6.26,1.11.62,1.53,1.06.42.44.75.96.97,1.55s.32,1.27.29,2.02c-.04,1.02-.27,1.89-.68,2.61-.41.72-.95,1.3-1.62,1.75s-1.44.76-2.32.95-1.81.26-2.78.22c-.9-.04-1.75-.18-2.58-.44-.82-.26-1.55-.64-2.18-1.13-.63-.5-1.12-1.12-1.47-1.86s-.51-1.63-.47-2.65c.05-1.2.4-2.22,1.04-3.07.64-.85,1.58-1.37,2.8-1.58h0Zm-4.89-6.59l17.11.71.08-2.04-7-.29c-.56-.02-1.07-.12-1.54-.29s-.87-.42-1.21-.73c-.34-.32-.6-.71-.77-1.17-.17-.46-.25-1.01-.22-1.63.03-.78.28-1.39.75-1.82s1.08-.63,1.85-.6l8.39.35.08-2.04-8.15-.34c-.67-.03-1.29.02-1.84.13-.56.11-1.04.33-1.46.65-.41.32-.74.75-.99,1.28s-.39,1.21-.42,2.02c-.02.37,0,.75.07,1.14.06.4.17.78.33,1.14s.36.7.61,1,.57.54.94.71v.05l-6.55-.27-.08,2.04h.02Zm10.7-22.97l-.29,7.12c-.48-.05-.93-.17-1.34-.37-.42-.19-.78-.45-1.09-.77-.31-.32-.54-.69-.71-1.12-.17-.43-.24-.91-.22-1.44.02-.51.13-.98.33-1.39.2-.42.46-.77.79-1.07.32-.3.71-.53,1.15-.7s.9-.25,1.38-.27h0Zm3.53-1.8l-.08,2.01c.81.21,1.4.6,1.78,1.17s.55,1.28.51,2.15c-.03.67-.16,1.25-.41,1.74-.24.49-.56.88-.95,1.19-.39.3-.83.52-1.32.64-.49.12-1.01.17-1.55.13l.38-9.28c-.75-.06-1.54-.03-2.38.11-.84.13-1.62.41-2.34.82-.72.41-1.33.97-1.81,1.68-.49.71-.75,1.61-.8,2.72-.03.85.09,1.63.38,2.36.29.72.71,1.36,1.27,1.9.55.54,1.22.97,1.99,1.29s1.63.5,2.57.54c.94,0,1.82-.1,2.63-.31s1.51-.56,2.11-1.03,1.07-1.06,1.42-1.78c.35-.71.54-1.57.59-2.56.06-1.41-.25-2.59-.91-3.54-.67-.96-1.69-1.6-3.07-1.93v-.02h-.01Zm-8.32-4.09l12.4.51.08-2.04-7.72-.32c-.24,0-.54-.08-.89-.22s-.69-.34-1.02-.62c-.32-.28-.6-.63-.82-1.07-.22-.43-.32-.95-.3-1.54.02-.46.1-.84.25-1.13s.35-.52.6-.68c.26-.17.55-.28.89-.34s.71-.08,1.11-.06l8.13.33.08-2.04-7.72-.32c-.96-.04-1.71-.36-2.27-.96s-.81-1.4-.77-2.41c.02-.5.11-.9.27-1.2.16-.31.36-.54.62-.71.26-.17.55-.27.89-.32.34-.05.7-.07,1.08-.05l8.13.33.08-2.04-9.09-.37c-.64-.03-1.19.05-1.65.23-.46.18-.85.45-1.15.79-.3.35-.53.77-.69,1.27s-.25,1.06-.27,1.68c-.03.82.12,1.57.46,2.26s.84,1.26,1.49,1.71c-.78.22-1.34.64-1.68,1.25-.35.61-.53,1.3-.57,2.07-.07,1.74.58,3.11,1.95,4.09v.05l-1.82-.08-.08,1.92v.03h0Zm10.66-21.94l2.66.11.11-2.66-2.66-.11-.11,2.66Zm1.72-28.86l2.16-.51.06-1.44-9.02-.37-.31,7.51,1.92.08.23-5.47c.78,0,1.51.13,2.18.4s1.25.65,1.73,1.14c.48.49.86,1.09,1.12,1.79s.37,1.5.33,2.39c-.04.96-.26,1.79-.67,2.51-.41.71-.93,1.3-1.59,1.77-.65.47-1.39.82-2.23,1.04-.83.22-1.7.31-2.59.28-.91-.04-1.8-.19-2.66-.45s-1.62-.64-2.28-1.14c-.66-.5-1.18-1.13-1.57-1.89-.38-.76-.56-1.66-.51-2.7.03-.64.13-1.24.3-1.8.18-.56.42-1.06.75-1.49.32-.43.73-.79,1.21-1.08.48-.28,1.06-.47,1.72-.55l.09-2.28c-1.01.12-1.89.38-2.61.79-.73.41-1.34.93-1.83,1.56s-.86,1.35-1.11,2.16-.39,1.69-.43,2.61c-.06,1.36.15,2.56.61,3.59.46,1.04,1.1,1.91,1.92,2.63.82.71,1.79,1.27,2.9,1.66,1.11.39,2.29.61,3.54.66,1.12.05,2.21-.09,3.26-.42,1.05-.32,2-.82,2.82-1.49.83-.67,1.5-1.5,2.01-2.49s.8-2.12.85-3.4c.04-1.01-.11-2.01-.46-3.02-.35-1.01-.96-1.87-1.83-2.57h0Zm2.81-17.41c.19.36.28.85.25,1.48-.02.53-.19.94-.5,1.24s-.8.44-1.47.41c.65.59,1.11,1.26,1.37,2.01.27.76.38,1.56.34,2.43-.02.56-.11,1.09-.26,1.59s-.37.93-.65,1.28c-.29.36-.65.63-1.1.83-.45.2-.98.28-1.61.26-.7-.03-1.27-.17-1.71-.43-.44-.26-.79-.59-1.05-.99s-.46-.86-.58-1.37-.22-1.03-.3-1.56c-.09-.56-.15-1.1-.19-1.61-.04-.51-.1-.95-.18-1.34-.09-.39-.23-.7-.42-.93-.19-.23-.48-.36-.86-.37-.45-.02-.81.05-1.09.21s-.5.36-.65.62-.26.55-.32.88c-.06.33-.1.65-.11.97-.04.86.1,1.59.4,2.18.3.59.91.93,1.82,1.01l-.08,2.04c-.77-.06-1.41-.25-1.92-.56-.52-.31-.93-.71-1.24-1.2-.31-.49-.52-1.05-.64-1.67-.12-.62-.16-1.28-.13-1.99.02-.56.09-1.11.19-1.66s.29-1.04.55-1.48c.27-.44.63-.78,1.09-1.04.46-.25,1.05-.37,1.76-.34l6.37.26c.48.02.83,0,1.06-.04.23-.05.34-.23.36-.55,0-.18-.02-.38-.07-.63l1.58.07h-.01Zm-6.49,3.03c.18.26.31.61.38,1.02.07.42.12.86.16,1.32.04.46.08.92.13,1.39s.15.89.29,1.26c.14.37.36.68.64.93.28.24.68.38,1.19.4.33.01.62-.04.86-.17s.43-.29.58-.5.27-.46.34-.74c.08-.29.12-.59.13-.91.03-.67-.04-1.25-.2-1.74-.16-.49-.38-.89-.64-1.2-.27-.31-.56-.55-.88-.71s-.62-.24-.91-.25l-2.08-.09h.01Zm2.82-7.81l-.08,2.04c.77,0,1.43-.13,1.97-.4.55-.27,1-.63,1.34-1.1.35-.47.61-1.01.78-1.63.17-.62.27-1.27.3-1.96.03-.62,0-1.25-.1-1.89-.09-.64-.28-1.21-.57-1.73-.28-.52-.67-.94-1.15-1.27-.48-.33-1.1-.51-1.85-.54-.59-.02-1.09.07-1.5.29s-.75.51-1.03.87-.51.79-.69,1.27c-.18.48-.34.98-.47,1.48-.13.48-.26.95-.38,1.43-.12.48-.27.9-.44,1.28s-.37.69-.61.92c-.24.24-.54.35-.89.34-.32-.01-.58-.1-.77-.27-.19-.17-.34-.38-.45-.64s-.18-.55-.22-.86-.05-.62-.03-.93c.01-.34.06-.67.15-.99.09-.32.21-.62.38-.88.17-.27.39-.48.66-.65.27-.16.61-.25,1.01-.27l.08-2.04c-.75.02-1.39.15-1.9.4s-.93.6-1.24,1.04-.54.96-.69,1.54c-.14.59-.23,1.23-.26,1.93-.02.54.02,1.09.14,1.65.11.56.3,1.06.56,1.51s.61.83,1.05,1.12c.44.3.97.46,1.59.49.8.03,1.43-.14,1.9-.52.46-.38.83-.87,1.1-1.46.27-.59.49-1.23.66-1.93.16-.7.34-1.34.54-1.94.19-.59.43-1.08.72-1.47s.7-.57,1.22-.55c.38.02.7.12.94.33.24.2.42.45.53.75.12.3.19.63.22.98.03.35.04.69.03,1.01-.02.42-.07.82-.17,1.21-.1.39-.24.73-.44,1.04-.2.3-.45.55-.77.72-.32.18-.7.27-1.15.26l-.02.02h0Zm-7.98-12.59l17.11.71.08-2.04-6.38-.26v-.05c.38-.21.7-.47.96-.79s.47-.66.63-1.02c.16-.36.28-.73.36-1.1.08-.37.13-.71.14-1.02.04-.94-.09-1.78-.4-2.5s-.74-1.34-1.31-1.83c-.56-.5-1.23-.88-2.01-1.14-.77-.26-1.6-.41-2.48-.45s-1.72.05-2.51.26c-.79.21-1.5.54-2.12.98-.62.45-1.12,1.02-1.5,1.72s-.59,1.52-.63,2.48c-.04.86.09,1.66.37,2.39.28.73.76,1.28,1.43,1.64v.05l-1.68-.07-.08,2.04h.02Zm6.49-9.34c.61.03,1.2.11,1.77.26.57.15,1.07.38,1.51.69s.78.7,1.03,1.18c.25.48.36,1.08.34,1.78-.03.7-.19,1.3-.47,1.78-.28.48-.65.87-1.09,1.17-.44.29-.95.5-1.53.62-.57.12-1.16.17-1.77.14-.58-.02-1.14-.11-1.69-.27s-1.04-.4-1.47-.72-.77-.73-1.02-1.22-.36-1.08-.34-1.77c.03-.66.18-1.22.45-1.7.28-.48.64-.86,1.08-1.16.44-.29.95-.51,1.5-.63.56-.13,1.12-.18,1.7-.16h0Zm-.48-14.62l-.29,7.12c-.48-.05-.93-.17-1.34-.37-.42-.19-.78-.45-1.09-.77-.31-.32-.54-.69-.71-1.12-.17-.43-.24-.91-.22-1.44.02-.51.13-.98.33-1.39.2-.42.46-.77.79-1.07.32-.3.71-.53,1.15-.7s.9-.25,1.38-.27h0Zm3.53-1.8l-.08,2.01c.81.21,1.4.6,1.78,1.17s.55,1.28.51,2.15c-.03.67-.16,1.25-.41,1.74-.24.49-.56.88-.95,1.19-.39.3-.83.52-1.32.64-.49.12-1.01.17-1.55.13l.38-9.28c-.75-.06-1.54-.03-2.38.11-.84.13-1.62.41-2.34.82-.72.41-1.33.97-1.81,1.68-.49.71-.75,1.61-.8,2.72-.03.85.09,1.63.38,2.36.29.72.71,1.36,1.27,1.9.55.54,1.22.97,1.99,1.29s1.63.5,2.57.54c.94,0,1.82-.1,2.63-.31s1.51-.56,2.11-1.03,1.07-1.06,1.42-1.78c.35-.71.54-1.57.59-2.56.06-1.41-.25-2.59-.91-3.54-.67-.96-1.69-1.6-3.07-1.93v-.02h-.01Zm-14.62,1.61l3.75,3.54-.06,1.53-3.79-2.46.11-2.61h-.01ZM1497.92,0h-26.3l-614.24,223.57L865.17,0h-9.01l-7.93,226.89L.48,535.45v9.58L847.91,236.59l-12.68,363.17h9.01l12.79-366.49L1497.92,0Z" fill="#fff" fill-rule="evenodd"/></g><g id="White"><path d="m835.13,272.13c0,15.61-13.48,31.59-23.32,42.81-.04.04-3.57,3.38-3.57,3.38,0,0-3.35-2.96-3.74-3.38-9.83-11.23-23.31-27.2-23.31-42.81s12.1-26.77,26.97-26.77,26.97,11.86,26.97,26.77h0Zm-26.97,16.03c8.75,0,15.86-7.12,15.86-15.86s-7.12-15.86-15.86-15.86-15.86,7.12-15.86,15.86,7.12,15.86,15.86,15.86Zm-9.53-15.88c0,5.26,4.27,9.53,9.53,9.53s9.53-4.27,9.53-9.53-4.27-9.53-9.53-9.53-9.53,4.27-9.53,9.53Z" fill="#fff"/></g></svg>