<?xml version="1.0" encoding="UTF-8"?><svg xmlns="http://www.w3.org/2000/svg" width="1.75in" height=".56in" viewBox="0 0 126 40"><g id="Bromont" isolation="isolate"><g id="Bromont-2"><path d="m119.71,20.98l-12.73,12.73,17.68,4.95-4.95-17.68ZM14.68,10.75c1.09-1.31,1.52-3.09,1.13-4.74-.35-1.61-1.43-3.01-2.91-3.77-.87-.47-1.83-.68-2.78-.68H1.69v19.39h10c.7,0,2.35-.55,3.26-1.27,2.13-1.74,2.74-4.78,1.39-7.11-.43-.72-1-1.31-1.65-1.82ZM5.03,4.74h5.09c1.39,0,2.52,1.1,2.52,2.41-.04,1.35-1.13,2.41-2.52,2.41h-5.09v-4.83Zm6.17,12.96h-6.17v-4.87h6.17c1.39,0,2.52,1.1,2.52,2.46s-1.13,2.41-2.52,2.41Zm11.3-10.63h-3.26v13.89h3.35v-6.73c0-2.88,1.26-4.23,4.87-4.15v-3.26c-2.83-.04-3.87.89-4.52,1.31-.17-.42-.43-1.06-.43-1.06Zm66.54-.08c-.74.21-1.43.55-2,1.02-.13-.3-.26-.64-.39-.93h-3.26v13.89h3.35v-8.17c0-.76.35-1.48.91-1.99.83-.72,2.09-.97,3.13-.51,1.04.47,1.78,1.48,1.78,2.63v8.04h3.35v-8.3c0-.93-.09-1.82-.43-2.63-1.09-2.37-3.82-3.73-6.43-3.05Zm14.21-4.19h-3.35v4.23h-2.43v3.26h2.43v5.04c0,1.99,1.39,5.55,6.08,5.59v-3.26c-1.26,0-2.74-.68-2.74-2.37v-5h2.74v-3.26h-2.74V2.79Zm-38.42,4.23h-2.65c-.35,0-.61.17-.74.47l-1.35,3.09-3.82-8.81c-.09-.21-.3-.34-.57-.34h-2.56c-.26,0-.48.13-.57.34l-3.43,7.88-1-2.29c-.09-.21-.3-.34-.57-.34h-3c-.26,0-.48.13-.57.34l-5.87,13.55h3.65l4-9.23c.09-.25.48-.25.57,0l.91,2.16-3,7.07h3.65l1.26-2.88,1.26,2.88h3.65l-3.09-7.07,3.17-7.28c.09-.25.48-.25.57,0l6.22,14.35h3.65l-2.69-6.14,1.22-2.84c.09-.25.48-.25.57,0l3.91,8.98h3.65l-5.87-13.55c-.09-.21-.3-.34-.57-.34Zm9.3-.42c-2.26,0-4.26.97-5.61,2.54l1.65,3.85c.39-1.78,2-3.09,3.91-3.09,2.22,0,4,1.78,4,3.94s-1.78,3.94-4,3.94c-.78,0-1.52-.21-2.13-.59l1.65,3.81h.43c4.04,0,7.35-3.22,7.35-7.2.09-3.98-3.22-7.2-7.26-7.2Zm-42.72,7.2c0-2.2,1.78-3.94,4-3.94,1.91,0,3.52,1.31,3.91,3.09l1.65-3.81c-1.35-1.57-3.35-2.54-5.61-2.54-4.04,0-7.35,3.22-7.26,7.16,0,3.98,3.3,7.2,7.35,7.2h.43l1.65-3.81c-.61.38-1.35.59-2.13.59-2.22,0-4-1.74-4-3.94Z" fill="#fff" fill-rule="evenodd"/></g></g></svg>