<?xml version="1.0" encoding="UTF-8"?><svg id="Layer_1" xmlns="http://www.w3.org/2000/svg" width="940" height="403" viewBox="0 0 940 403"><path d="m325.37,374.02h4.62l11.82-11.74c.12-.12.29-.21.5-.21h2.37c.12,0,.29.04.37.12.12.08.21.21.25.33s.08.25.04.42c-.04.12-.08.25-.21.37l-12.37,12.2,12.7,13.86c.08.08.17.21.17.37.04.12,0,.29-.04.42s-.12.25-.25.29c-.12.08-.25.12-.37.12h-2.5c-.08,0-.21,0-.29-.04s-.17-.08-.25-.17l-11.95-13.12h-4.62l-.04,12.62c0,.17-.08.37-.21.5-.12.12-.29.21-.5.21h-2c-.08,0-.17,0-.25-.04s-.17-.08-.21-.17c-.08-.08-.12-.12-.17-.21s-.04-.17-.04-.25l.08-42.05c0-.17.08-.37.21-.5.08-.29.25-.37.46-.37h2.04c.17,0,.37.08.5.21.12.12.21.29.21.5l-.08,26.31Zm-13.66-19.28c-.04.08-.12.17-.21.21s-.17.08-.25.12h-.29c-.08,0-.17-.04-.25-.12-3.75-2.5-8.16-3.79-12.66-3.75-3.46,0-6.33.75-8.54,2.25-1.04.67-1.87,1.54-2.46,2.62-.58,1.08-.87,2.29-.83,3.5-.04,1,.17,1.96.62,2.87.42.87,1.08,1.67,1.87,2.25,1.67,1.25,4.29,2.08,7.83,2.5l4.62.54c8.66,1.04,13.03,4.66,12.99,10.87.04,1.87-.42,3.71-1.33,5.37-.87,1.58-2.12,2.91-3.62,3.87-1.62,1.04-3.41,1.79-5.29,2.25-2.08.54-4.25.79-6.41.75-3.08,0-6.16-.5-9.08-1.5-2.41-.79-4.7-1.92-6.79-3.41-.17-.12-.25-.25-.29-.46.04-.17.04-.33.17-.5l1.25-1.79c.04-.08.12-.12.21-.21.08-.04.17-.08.25-.08h.29c.08,0,.17.04.25.12,3.96,2.66,8.58,4.16,13.37,4.33,3.96.04,7.16-.67,9.66-2.17,2.41-1.46,3.58-3.58,3.58-6.29.04-1-.17-2.04-.62-2.91-.46-.92-1.17-1.67-2-2.25-1.79-1.21-4.5-2.04-8.12-2.46l-4.83-.54c-4-.46-7.04-1.58-9.2-3.37-2.12-1.87-3.21-4.37-3.21-7.54-.04-2.37.71-4.66,2.12-6.58,1.46-1.87,3.41-3.33,5.62-4.16,2.54-.96,5.25-1.42,7.95-1.37,5.45,0,10.33,1.42,14.57,4.29.17.12.25.25.29.46.04.17,0,.37-.08.5l-1.17,1.79Zm41.64,47.92h2.17c.12,0,.25-.04.33-.08.12-.04.21-.12.25-.25l22.94-39.1c.04-.12.08-.21.08-.33s-.04-.25-.08-.33c-.04-.12-.17-.21-.25-.25-.12-.04-.21-.08-.33-.08h-2.17c-.12,0-.25.04-.33.08-.12.04-.21.17-.25.25l-10.58,18.28-11.24-18.36c-.08-.08-.17-.17-.25-.25-.12-.04-.21-.08-.33-.08h-2.25c-.12,0-.25.04-.33.12s-.21.17-.25.25c-.04.12-.08.21-.08.33s.04.25.08.33l12.66,21.03-10.33,17.4c-.08.12-.08.21-.08.33s.04.25.08.33.17.21.25.25c.08.08.17.12.29.12Zm55.67-50.8l-14.57-.04-.08,38.06c0,.17-.08.37-.21.5-.12.12-.29.21-.5.21h-2.33c-.08,0-.17,0-.25-.04s-.17-.08-.21-.17-.12-.12-.17-.21-.04-.17-.04-.25l.08-38.06-14.57-.04c-.17,0-.37-.08-.5-.21s-.21-.29-.21-.5v-2.12c0-.17.08-.37.21-.5s.29-.21.5-.21l32.85.08c.17,0,.37.08.5.21.12.12.21.29.21.5v2.08c0,.17-.08.37-.21.5-.17.12-.33.21-.5.21Zm17.49,10.95c-1.62-.71-3.41-1.04-5.2-1-4.04,0-7.41,1.37-10.08,4.12-2.71,2.75-4.04,6.25-4.04,10.53s1.33,7.83,4,10.58,6.12,4.08,10.33,4.08c4.46,0,8.2-1.42,11.24-4.21.12-.12.21-.29.21-.46s-.04-.33-.17-.5l-.96-1.25c-.04-.08-.12-.12-.21-.17s-.17-.08-.29-.08c-.08,0-.21,0-.29.04s-.17.08-.25.12c-2.46,2.29-5.7,3.54-9.08,3.5-2.79.08-5.5-.92-7.58-2.79-2.04-1.87-3.21-4.41-3.46-7.62l23.9.04c.04-.58.08-1.08.08-1.42-.04-4.21-1.29-7.7-3.83-10.41-1.21-1.37-2.66-2.41-4.33-3.12Zm-9.12,2.66c1.21-.46,2.54-.71,3.83-.67,1.25-.04,2.5.21,3.66.67s2.21,1.17,3.12,2.08c1.83,1.83,2.87,4.21,3.12,7.16l-20.4-.04c.21-2.71,1.42-5.25,3.37-7.12.96-.87,2.08-1.58,3.29-2.08Zm37.14-3.62c4.12,0,7.49,1.29,10.03,3.91.12.12.21.29.21.5,0,.17-.08.37-.21.5l-1.29,1.33c-.12.12-.29.21-.46.21s-.37-.04-.5-.17c-2.12-2-4.95-3.08-7.87-3.04-1.46-.04-2.91.25-4.29.79-1.33.54-2.58,1.37-3.58,2.46-2.12,2.17-3.16,4.87-3.16,8.2s1.04,6,3.16,8.16c1,1.04,2.21,1.92,3.58,2.46,1.33.54,2.79.83,4.25.79,2.96.04,5.79-1.04,7.95-3.04.12-.12.33-.17.5-.17s.37.08.46.25l1.25,1.33c.12.12.21.29.21.46s-.08.33-.21.46c-2.58,2.62-5.95,3.91-10.08,3.91s-7.79-1.42-10.53-4.16c-2.71-2.75-4.08-6.25-4.08-10.49s1.37-7.7,4.12-10.49c2.79-2.79,6.29-4.16,10.53-4.16Zm24.27,1.42c-1.79.92-3.33,2.29-4.37,4l.04-19.28c0-.08,0-.21-.04-.29s-.08-.17-.17-.25c-.08-.08-.12-.12-.25-.17-.08-.04-.17-.04-.29-.04h-2.04c-.08,0-.17,0-.25.04s-.17.08-.21.17c-.08.08-.12.12-.17.21-.04.08-.04.17-.04.25l-.08,42.05c0,.17.08.37.21.5.12.12.29.21.5.21h2.04c.17,0,.37-.08.5-.21.12-.12.21-.29.21-.5l.04-15.49c0-2.75.92-5,2.75-6.79.92-.87,1.96-1.54,3.12-2s2.41-.67,3.66-.62c2.91,0,5.12.83,6.74,2.5,1.58,1.62,2.37,3.91,2.37,6.79l-.04,15.66c0,.17.08.37.21.5.12.12.29.21.5.21h2.04c.17,0,.37-.08.5-.21s.21-.29.21-.5l.04-16.7c0-3.46-1.08-6.25-3.29-8.33-2.17-2.08-5.08-3.12-8.7-3.12-1.96.04-3.96.5-5.75,1.42Zm55.5-8.29c-.08.12-.17.21-.25.25-.08.08-.21.12-.33.17s-.25.04-.37,0c-.12-.04-.25-.08-.33-.12-3.71-2.41-8.04-3.66-12.49-3.62-3.46,0-6.33.75-8.54,2.25-1.04.67-1.87,1.54-2.46,2.62-.58,1.08-.87,2.29-.83,3.5-.04,1,.17,1.96.62,2.87.42.87,1.08,1.67,1.87,2.25,1.67,1.25,4.29,2.08,7.83,2.5l4.62.54c8.7,1.04,13.03,4.66,12.99,10.87.04,1.87-.42,3.71-1.33,5.37-.87,1.58-2.12,2.91-3.62,3.87-1.62,1.04-3.37,1.79-5.25,2.29-2.12.54-4.29.79-6.45.79-3.08,0-6.16-.5-9.08-1.5-2.33-.75-4.58-1.83-6.58-3.25-.21-.17-.33-.37-.37-.62-.04-.25,0-.5.17-.71l.96-1.37c.12-.21.37-.33.62-.37s.5,0,.71.17c3.96,2.62,8.58,4.08,13.32,4.16,3.87.04,7.04-.67,9.49-2.17,2.41-1.46,3.58-3.58,3.58-6.29.04-1-.17-2.04-.62-2.96s-1.17-1.67-2-2.25c-1.79-1.21-4.46-2.04-8.08-2.46l-4.79-.62c-3.96-.46-7.04-1.58-9.2-3.37-2.17-1.79-3.25-4.29-3.21-7.45-.04-2.37.71-4.7,2.12-6.58,1.46-1.87,3.41-3.33,5.66-4.16,2.54-.96,5.25-1.42,7.95-1.37,5.37,0,10.16,1.37,14.32,4.16.21.12.37.37.42.58.04.25,0,.5-.12.71l-.96,1.33Zm30.31,8.12c-1.75-.71-3.62-1.08-5.5-1.04-2.29-.04-4.58.46-6.58,1.54-1.87,1-3.5,2.5-4.62,4.29v-4.7c0-.08,0-.17-.04-.25-.04-.08-.08-.17-.17-.21-.08-.08-.12-.12-.21-.17-.08-.04-.17-.04-.25-.04h-2.04c-.17,0-.37.08-.5.21s-.21.29-.21.5l-.08,39.05c0,.17.08.37.21.5s.29.21.5.21h2.04c.17,0,.37-.08.5-.21s.21-.29.21-.5l.04-16.78c1.17,1.79,2.75,3.29,4.62,4.29,2.04,1.08,4.29,1.62,6.62,1.58,1.87.04,3.75-.29,5.5-1,1.75-.71,3.33-1.79,4.66-3.12,2.75-2.75,4.12-6.25,4.12-10.45s-1.37-7.7-4.08-10.49c-1.42-1.42-3-2.5-4.75-3.21Zm-10.24,2.96c1.37-.54,2.83-.83,4.33-.79h0c3.25,0,5.87,1.12,7.95,3.29,1.04,1.08,1.83,2.37,2.37,3.75.54,1.42.79,2.87.75,4.37.04,1.5-.21,3-.75,4.37s-1.37,2.66-2.37,3.75c-2.08,2.17-4.75,3.25-7.99,3.25-1.46.04-2.96-.25-4.33-.79-1.37-.54-2.58-1.42-3.62-2.46-2.08-2.17-3.12-4.87-3.12-8.16s1.04-6,3.16-8.16c1-1,2.25-1.83,3.62-2.41Zm28.44.25c2.83-2.79,6.33-4.16,10.58-4.16s7.74,1.42,10.58,4.21c2.83,2.79,4.25,6.29,4.25,10.49s-1.46,7.66-4.29,10.45c-2.83,2.79-6.37,4.16-10.58,4.16s-7.74-1.42-10.53-4.21c-2.79-2.79-4.21-6.29-4.21-10.45-.08-4.21,1.37-7.7,4.21-10.49Zm10.53-.96c-1.5-.04-3,.21-4.37.79-1.37.54-2.62,1.37-3.71,2.46-2.17,2.17-3.25,4.87-3.25,8.2s1.04,6.04,3.21,8.16c2.17,2.08,5.04,3.25,8.04,3.25s5.91-1.12,8.08-3.21c2.17-2.17,3.25-4.87,3.25-8.16s-1.08-6.04-3.21-8.2c-1.04-1.08-2.29-1.92-3.71-2.46-1.33-.58-2.83-.83-4.33-.83Zm38.93-2.33c-1.54-.58-3.12-.87-4.75-.83-1.79,0-3.58.46-5.08,1.42-1.58.96-2.83,2.29-3.71,3.91v-4.16c0-.17-.08-.37-.21-.5s-.29-.21-.5-.21h-2c-.17,0-.37.08-.5.21s-.21.29-.21.5l-.04,26.98c0,.17.08.37.21.5.12.12.33.21.5.21h2c.17,0,.37-.08.5-.21s.21-.29.21-.5l.04-15.36c0-2.83.79-5.12,2.29-6.91.71-.87,1.62-1.54,2.62-2,1-.46,2.12-.67,3.25-.67,1.46-.04,2.96.25,4.33.79.08.04.21.04.29.04s.21-.04.29-.08c.08-.04.17-.12.25-.17.08-.08.12-.17.12-.25l.5-1.96c.04-.17.04-.33-.04-.5-.08-.08-.21-.21-.37-.25Zm26.81,2.83l-12.45-.04-.04,15.49c0,2.33.54,4.08,1.67,5.25,1.12,1.17,2.66,1.75,4.62,1.75,2.08.04,4.08-.58,5.79-1.75.08-.04.17-.08.25-.12h.29c.08,0,.17.04.25.12.08.04.12.12.21.21l.87,1.42c.08.17.12.33.08.5-.04.17-.12.33-.29.46-2.25,1.62-4.95,2.46-7.74,2.37-3.04,0-5.37-.87-7.04-2.58s-2.46-4.25-2.46-7.62l.04-15.53h-5.83c-.08,0-.17,0-.29-.04-.08-.04-.17-.08-.21-.17-.08-.08-.12-.12-.17-.21-.04-.08-.04-.17-.04-.25v-1.75c0-.08.04-.17.04-.25.04-.08.08-.17.17-.21.08-.08.12-.12.21-.17.08-.04.17-.04.29-.04h5.83v-8.58c0-.08,0-.17.04-.25s.08-.17.17-.21c.08-.08.12-.12.21-.17.08-.04.17-.04.25-.04h2.04c.17,0,.37.08.5.21.12.12.21.29.21.5v8.58l12.45.04c.21,0,.37.08.5.21s.21.29.21.5v1.75c0,.08,0,.21-.04.29s-.08.17-.17.25c-.08.08-.17.12-.25.17s-.08-.08-.17-.08Zm-401.08,8.14H0v3.27h258v-3.27Zm682,0h-258v3.27h258v-3.27Z" fill="#fff"/><path d="m289.81,312.29c.96.74,2.13,1.14,3.34,1.14.93,0,1.84-.23,2.65-.68,68.22-37.77,120.41-75.91,150.94-110.14,33.89-37.94,30.9-58.43,28.04-65.48l-.17-.39c-7.94-15.73-24.92-15.53-38.94-13.76-47.5,6.34-75.12,10.97-91.61,13.75l-.26.04c-9.41,1.58-16.15,2.71-19.15,2.81,1.99-2.58,10.01-9.99,40.51-22.58,23.36-9.64,47.46-17.4,72.07-23.19l.41-.11c17.62-5.3,30.29,7.5,42.54,19.93l.02.02c8.79,8.92,17.1,17.36,27.12,18.43,21.2,2.33,43.95-10.87,54.96-30.55,7.1,4.23,13.42,9.64,18.69,16l.11.12c36.23,38.89,56.41,78.31,54.34,92.54-1.01,6.86-30.26,33.04-58.44,47.7-10.9,5.61-16.28,6.73-18.69,6.73,2.57-3.59,9.87-9.96,15.43-14.8,16.32-14.18,36.6-31.87,34.26-49.7-1.17-8.91-7.76-16.45-19.62-22.37-4.81-3.18-9.95-5.78-14.62-3.87-5.03,2.05-6.18,7.35-7.62,14.06l-.02.12c-2.21,10.21-5.57,25.7-22.9,41.2-.53.48-.97,1.05-1.28,1.7-.31.64-.49,1.34-.53,2.06-.08,1.44.42,2.85,1.38,3.93.96,1.08,2.32,1.72,3.76,1.8.72.04,1.43-.06,2.11-.3.68-.24,1.3-.6,1.83-1.08,19.94-17.74,23.89-36.01,26.25-46.9l.06-.29c.43-2,.94-4.34,1.4-5.73,1.55.72,3.04,1.57,4.44,2.55l.61.34c8.64,4.24,13.35,9.01,14.02,14.18,1.57,12.06-16.98,28.26-30.55,40.11l-.09.07c-14.37,12.55-24.75,21.61-18.12,29.82,3.3,4.1,9.07,5.06,17.13,2.87,14.1-3.84,34.33-16.7,48.55-27.57,11.31-8.64,30.48-24.57,32.04-35.04,3.68-25.32-33.02-75.6-57.07-101.43-7.51-8.57-14.94-14.79-22.52-18.81,11.54-42.78-.17-65.06-5.76-72.68-8.61-11.73-22.1-18.06-40.07-18.81-22.69-.89-38.97,10.25-45.74,31.39-7.04,21.81-1.89,52.08,10.22,59.99,15.58,10.17,30.78,8.28,44.19,6.6l.6-.07c7.71-.97,15.05-1.89,21.99-.38-9.19,15.1-27.23,25.41-43.46,23.66-6.14-.65-13.13-7.73-20.52-15.23l-.04-.04c-13.11-13.29-29.42-29.82-53.22-22.77-37.96,8.39-112.36,34.67-120.61,52.81-.68,1.35-1.03,2.85-1.02,4.37.01,1.51.39,3.01,1.09,4.35,1.65,3,4,5.72,10.12,5.72,3.82-.03,9.72-1.03,21.48-3.01,16.43-2.81,43.94-7.38,91.3-13.68,15.64-2.08,23.64.14,27.54,7.66,5.37,14.23-15.02,73.62-174.19,161.85-1.06.58-1.89,1.5-2.36,2.61-.48,1.11-.57,2.34-.27,3.51.3,1.17.99,2.2,1.94,2.94ZM485.4,34.83c3.55-11.01,12.13-23.9,32.8-23.9l2.18.09c14.49.61,25.17,5.44,31.73,14.38,13.71,18.64,7.34,50.56,4.36,62.13-9.66-2.57-19.09-1.39-28.28-.25l-.16.02c-12.66,1.58-24.61,3.07-36.82-4.9-5.81-3.82-12.43-27.06-5.81-47.57Z" fill="#fff" fill-rule="evenodd"/></svg>